<?xml version="1.0" encoding="UTF-8"?><svg id="OBJECTS" xmlns="http://www.w3.org/2000/svg" viewBox="0 0 344.39 164.87"><defs><style>.cls-1{fill:#f4b5b3;}.cls-2{fill:#8ee2de;}.cls-3{fill:#ef857f;}.cls-4,.cls-5{fill:#f16280;}.cls-6,.cls-7{fill:#2052b7;}.cls-8{fill:#b9dc6c;}.cls-9{fill:#d9eaac;}.cls-10,.cls-11{fill:#bc2a2a;}.cls-12{fill:#d16d6d;}.cls-13{fill:#a5e5e5;}.cls-14{stroke:#b9dc6c;}.cls-14,.cls-15{fill:#028c45;}.cls-14,.cls-11,.cls-5,.cls-7{stroke-width:2.31px;}.cls-16{fill:#65aa81;}.cls-11{stroke:#ef857f;}.cls-5{stroke:#ffad91;}.cls-17{fill:#4eced1;}.cls-18{fill:#fae;}.cls-19{fill:#ffaf8f;}.cls-20{fill:none;stroke:#fff;stroke-width:3px;}.cls-7{stroke:#4eced1;}.cls-21{fill:#5495d6;}</style></defs><path class="cls-15" d="M167.02,162.31V95.88s0-2.56,3.57-2.56,3.57,2.56,3.57,2.56v66.43s.12,2.49-3.57,2.56c-3.23,.06-3.57-2.56-3.57-2.56Z"/><path class="cls-8" d="M174.16,126.35l-7.15-2.75v-5.5l7.15,2.75v5.5Z"/><path class="cls-8" d="M174.16,115.34l-7.15-2.75v-5.5l7.15,2.75v5.5Z"/><path class="cls-8" d="M174.16,104.33l-7.15-2.75v-5.5l7.15,2.75v5.5Z"/><path class="cls-14" d="M171.94,1.16c26.68,0,48.31,21.4,48.31,47.78,0,26.39-21.64,47.77-48.32,47.77-26.68,0-48.31-21.4-48.31-47.78,0-26.38,21.63-47.76,48.31-47.77"/><path class="cls-8" d="M171.92,10.43c23.88,0,43.24,17.34,43.24,38.72,0,21.38-19.37,38.71-43.25,38.71-23.88,0-43.24-17.34-43.24-38.72,0-21.38,19.36-38.71,43.24-38.71"/><path class="cls-16" d="M173.56,25.31c15.9,0,28.79,11.16,28.79,24.92,0,13.76-12.9,24.91-28.8,24.91-15.9,0-28.79-11.16-28.79-24.92,0-13.76,12.89-24.91,28.79-24.91"/><path class="cls-9" d="M166.99,30.48c11.79,0,21.35,9.56,21.35,21.36,0,11.79-9.56,21.35-21.36,21.35-11.79,0-21.35-9.56-21.35-21.36,0-11.79,9.56-21.35,21.35-21.35"/><path class="cls-16" d="M171.19,34.15c8.76,0,15.85,7,15.85,15.64,0,8.64-7.1,15.64-15.86,15.63-8.76,0-15.85-7-15.85-15.64,0-8.63,7.1-15.63,15.85-15.63"/><path class="cls-8" d="M169.25,51.19c2.08,0,3.77,1.64,3.77,3.67,0,2.03-1.69,3.67-3.78,3.67-2.08,0-3.77-1.64-3.77-3.67,0-2.02,1.69-3.67,3.77-3.67"/><path class="cls-20" d="M170.18,52.28c1.46-1.7,3.16,1.02,3.01,2.29-.42,3.45-4.94,4.45-7.88,3.37-5.24-1.92-6.53-8.15-4.16-12.53,3.48-6.43,12.42-7.89,18.76-4.46,8.45,4.57,10.25,15.24,5.31,22.77-6.22,9.47-19.99,11.42-29.64,5.54-11.69-7.12-14.02-22.38-6.46-33.01,8.91-12.54,27.57-14.97,40.53-6.62,14.95,9.64,17.8,29.52,7.61,43.25-11.58,15.61-35.17,18.53-51.41,7.7-18.22-12.15-21.59-36.67-8.76-53.49,14.24-18.68,42.77-22.1,62.29-8.79"/><path class="cls-10" d="M44.54,162.31V95.88s0-2.56,3.57-2.56,3.57,2.56,3.57,2.56v66.43s.12,2.49-3.57,2.56c-3.23,.06-3.57-2.56-3.57-2.56Z"/><path class="cls-18" d="M51.69,126.35l-7.15-2.75v-5.5l7.15,2.75v5.5Z"/><path class="cls-18" d="M51.69,115.34l-7.15-2.75v-5.5l7.15,2.75v5.5Z"/><path class="cls-18" d="M51.69,104.33l-7.15-2.75v-5.5l7.15,2.75v5.5Z"/><path class="cls-5" d="M49.47,1.16c26.68,0,48.31,21.39,48.31,47.78s-21.63,47.78-48.31,47.78S1.16,75.32,1.16,48.93,22.78,1.16,49.45,1.16"/><path class="cls-19" d="M49.44,10.43c23.88,0,43.24,17.33,43.24,38.72s-19.36,38.72-43.24,38.72S6.2,70.53,6.2,49.15,25.55,10.44,49.43,10.43"/><path class="cls-4" d="M51.09,25.31c15.9,0,28.79,11.15,28.79,24.91s-12.89,24.91-28.79,24.91-28.79-11.15-28.79-24.91,12.89-24.91,28.79-24.91"/><path class="cls-19" d="M44.51,30.48c11.79,0,21.35,9.56,21.35,21.35s-9.56,21.35-21.35,21.35-21.35-9.56-21.35-21.35,9.56-21.35,21.35-21.35"/><path class="cls-4" d="M48.72,34.15c8.76,0,15.85,7,15.85,15.64s-7.1,15.64-15.85,15.64-15.85-7-15.85-15.64,7.09-15.63,15.85-15.64"/><path class="cls-19" d="M46.77,51.19c2.08,0,3.77,1.64,3.77,3.67s-1.69,3.67-3.77,3.67-3.77-1.64-3.77-3.67,1.69-3.67,3.77-3.67"/><path class="cls-20" d="M47.7,52.28c1.46-1.7,3.16,1.02,3.01,2.29-.42,3.45-4.94,4.45-7.88,3.37-5.24-1.92-6.53-8.15-4.16-12.53,3.48-6.43,12.42-7.89,18.76-4.46,8.45,4.57,10.25,15.24,5.31,22.77-6.22,9.47-19.99,11.42-29.64,5.54-11.69-7.12-14.02-22.38-6.46-33.01,8.91-12.54,27.57-14.97,40.53-6.62,14.95,9.64,17.8,29.52,7.61,43.25-11.58,15.61-35.17,18.53-51.41,7.7C5.15,68.44,1.77,43.93,14.6,27.1,28.85,8.42,57.37,5,76.89,18.31"/><path class="cls-5" d="M49.47,1.16c26.68,0,48.31,21.39,48.31,47.78s-21.63,47.78-48.31,47.78S1.16,75.32,1.16,48.93,22.78,1.16,49.45,1.16"/><path class="cls-19" d="M49.44,10.43c23.88,0,43.24,17.33,43.24,38.72s-19.36,38.72-43.24,38.72S6.2,70.53,6.2,49.15,25.55,10.44,49.43,10.43"/><path class="cls-4" d="M51.09,25.31c15.9,0,28.79,11.15,28.79,24.91s-12.89,24.91-28.79,24.91-28.79-11.15-28.79-24.91,12.89-24.91,28.79-24.91"/><path class="cls-19" d="M44.51,30.48c11.79,0,21.35,9.56,21.35,21.35s-9.56,21.35-21.35,21.35-21.35-9.56-21.35-21.35,9.56-21.35,21.35-21.35"/><path class="cls-4" d="M48.72,34.15c8.76,0,15.85,7,15.85,15.64s-7.1,15.64-15.85,15.64-15.85-7-15.85-15.64,7.09-15.63,15.85-15.64"/><path class="cls-19" d="M46.77,51.19c2.08,0,3.77,1.64,3.77,3.67s-1.69,3.67-3.77,3.67-3.77-1.64-3.77-3.67,1.69-3.67,3.77-3.67"/><path class="cls-20" d="M47.7,52.28c1.46-1.7,3.16,1.02,3.01,2.29-.42,3.45-4.94,4.45-7.88,3.37-5.24-1.92-6.53-8.15-4.16-12.53,3.48-6.43,12.42-7.89,18.76-4.46,8.45,4.57,10.25,15.24,5.31,22.77-6.22,9.47-19.99,11.42-29.64,5.54-11.69-7.12-14.02-22.38-6.46-33.01,8.91-12.54,27.57-14.97,40.53-6.62,14.95,9.64,17.8,29.52,7.61,43.25-11.58,15.61-35.17,18.53-51.41,7.7C5.15,68.44,1.77,43.93,14.6,27.1,28.85,8.42,57.37,5,76.89,18.31"/><path class="cls-3" d="M51.69,126.35l-7.15-2.75v-5.5l7.15,2.75v5.5Z"/><path class="cls-3" d="M51.69,115.34l-7.15-2.75v-5.5l7.15,2.75v5.5Z"/><path class="cls-3" d="M51.69,104.33l-7.15-2.75v-5.5l7.15,2.75v5.5Z"/><path class="cls-11" d="M49.47,1.16c26.68,0,48.31,21.39,48.31,47.78s-21.63,47.78-48.31,47.78S1.16,75.32,1.16,48.93,22.78,1.16,49.45,1.16"/><path class="cls-3" d="M49.44,10.43c23.88,0,43.24,17.33,43.24,38.72s-19.36,38.72-43.24,38.72S6.2,70.53,6.2,49.15,25.55,10.44,49.43,10.43"/><path class="cls-12" d="M51.09,25.31c15.9,0,28.79,11.15,28.79,24.91s-12.89,24.91-28.79,24.91-28.79-11.15-28.79-24.91,12.89-24.91,28.79-24.91"/><path class="cls-1" d="M44.51,30.48c11.79,0,21.35,9.56,21.35,21.35s-9.56,21.35-21.35,21.35-21.35-9.56-21.35-21.35,9.56-21.35,21.35-21.35"/><path class="cls-12" d="M48.72,34.15c8.76,0,15.85,7,15.85,15.64s-7.1,15.64-15.85,15.64-15.85-7-15.85-15.64,7.09-15.63,15.85-15.64"/><path class="cls-19" d="M46.77,51.19c2.08,0,3.77,1.64,3.77,3.67s-1.69,3.67-3.77,3.67-3.77-1.64-3.77-3.67,1.69-3.67,3.77-3.67"/><path class="cls-20" d="M47.7,52.28c1.46-1.7,3.16,1.02,3.01,2.29-.42,3.45-4.94,4.45-7.88,3.37-5.24-1.92-6.53-8.15-4.16-12.53,3.48-6.43,12.42-7.89,18.76-4.46,8.45,4.57,10.25,15.24,5.31,22.77-6.22,9.47-19.99,11.42-29.64,5.54-11.69-7.12-14.02-22.38-6.46-33.01,8.91-12.54,27.57-14.97,40.53-6.62,14.95,9.64,17.8,29.52,7.61,43.25-11.58,15.61-35.17,18.53-51.41,7.7C5.15,68.44,1.77,43.93,14.6,27.1,28.85,8.42,57.37,5,76.89,18.31"/><path class="cls-6" d="M290,162.31V95.88s0-2.56,3.57-2.56,3.57,2.56,3.57,2.56v66.43s.12,2.49-3.57,2.56c-3.23,.06-3.57-2.56-3.57-2.56h0Z"/><path class="cls-17" d="M297.15,126.35l-7.15-2.75v-5.5l7.15,2.75v5.5Z"/><path class="cls-17" d="M297.15,115.34l-7.15-2.75v-5.5l7.15,2.75v5.5Z"/><path class="cls-17" d="M297.15,104.33l-7.15-2.75v-5.5l7.15,2.75v5.5Z"/><path class="cls-7" d="M294.93,1.16c26.68,0,48.31,21.4,48.31,47.78,0,26.39-21.64,47.77-48.32,47.77-26.68,0-48.31-21.4-48.31-47.78,0-26.38,21.63-47.76,48.31-47.77"/><path class="cls-17" d="M294.91,10.43c23.88,0,43.24,17.34,43.24,38.72,0,21.38-19.37,38.71-43.25,38.71-23.88,0-43.24-17.34-43.24-38.72,0-21.38,19.36-38.71,43.24-38.71"/><path class="cls-21" d="M296.55,25.31c15.9,0,28.79,11.16,28.79,24.92,0,13.76-12.9,24.91-28.8,24.91-15.9,0-28.79-11.16-28.79-24.92,0-13.76,12.89-24.91,28.79-24.91"/><path class="cls-13" d="M289.98,30.48c11.79,0,21.35,9.56,21.35,21.36,0,11.79-9.56,21.35-21.36,21.35-11.79,0-21.35-9.56-21.35-21.36,0-11.79,9.56-21.35,21.35-21.35"/><path class="cls-21" d="M294.18,34.15c8.76,0,15.85,7,15.85,15.64,0,8.64-7.1,15.64-15.86,15.63-8.76,0-15.85-7-15.85-15.64,0-8.63,7.1-15.63,15.85-15.63"/><path class="cls-2" d="M292.24,51.19c2.08,0,3.77,1.64,3.77,3.67,0,2.03-1.69,3.67-3.78,3.67-2.08,0-3.77-1.64-3.77-3.67,0-2.02,1.69-3.67,3.77-3.67"/><path class="cls-20" d="M293.16,52.28c1.46-1.7,3.16,1.02,3.01,2.29-.42,3.45-4.94,4.45-7.88,3.37-5.24-1.92-6.53-8.15-4.16-12.53,3.48-6.43,12.42-7.89,18.76-4.46,8.45,4.57,10.25,15.24,5.31,22.77-6.22,9.47-19.99,11.42-29.64,5.54-11.69-7.12-14.02-22.38-6.46-33.01,8.91-12.54,27.57-14.97,40.53-6.62,14.95,9.64,17.8,29.52,7.61,43.25-11.58,15.61-35.17,18.53-51.41,7.7-18.22-12.15-21.59-36.67-8.76-53.49,14.24-18.68,42.77-22.1,62.29-8.79"/></svg>