<?xml version="1.0" encoding="UTF-8"?><svg id="OBJECTS" xmlns="http://www.w3.org/2000/svg" viewBox="0 0 337.23 157.62"><defs><style>.cls-1{fill:#ffb6b6;}.cls-2{fill:#efbb8b;}.cls-3{fill:#fff;}.cls-4{fill:#f99;}.cls-5{fill:#d67937;}.cls-6{fill:#c9f4f1;}.cls-7{fill:#ea8d4e;}.cls-8{fill:#f26b6b;}.cls-9{fill:#a54b0e;}.cls-10{fill:#4dba9b;}.cls-11{fill:#fdb;}.cls-12{fill:#ffc897;}.cls-13{fill:#6fd1b8;}.cls-14{fill:#ffaf78;}.cls-15{fill:#77360a;}.cls-16{fill:#843804;}.cls-17{fill:#6d330c;}.cls-18{fill:#a3e2dc;}</style></defs><g><g><path class="cls-14" d="M329.74,89.28c-.65,3.78-1.3,7.57-1.97,11.35-.05,.29-.1,.57-.15,.86-.1,.6-.21,1.21-.32,1.81-.1,.6-.21,1.2-.32,1.8-.47,2.64-.95,5.27-1.44,7.9-.01,.05-.02,.1-.03,.15-.16,.83-.31,1.66-.47,2.49-.69,3.61-1.4,7.21-2.15,10.81t0,0c-.1,.46-.19,.91-.29,1.36-.16,.77-.32,1.52-.49,2.28h0c-.01,.07-.03,.12-.04,.19-.48,2.21-.97,4.42-1.48,6.63-.17,.71-.33,1.41-.5,2.12-.18,.78-.36,1.55-.56,2.33-.27,1.12-.55,2.25-.83,3.37-.32,1.29-.65,2.57-.99,3.85l-.05,.21c-.15,.55-.29,1.1-.44,1.64-.21,.79-.43,1.58-.65,2.37-.17,.6-.33,1.2-.5,1.79-.24,.85-.5,1.74-1.21,2.37-.73,.64-1.9,.88-2.79,.4-.81-.44-1.09-1.28-1.34-2.08-.04-.11-.07-.23-.11-.33-.2-.63-.4-1.26-.59-1.89-.1-.31-.19-.62-.29-.94-.59-1.95-1.13-3.92-1.65-5.89-.13-.51-.26-1.02-.4-1.53-.11-.44-.22-.88-.33-1.32h0c-.09-.37-.18-.73-.27-1.1h0c-.21-.87-.42-1.73-.63-2.59-.42-1.75-.82-3.5-1.22-5.26-.26-1.16-.53-2.33-.79-3.5h0c-.2-.89-.4-1.77-.6-2.66-.14-.6-.28-1.21-.41-1.81h0c-.27-1.2-.54-2.4-.81-3.6-.25-1.11-.5-2.22-.76-3.34-.2-.89-.4-1.79-.61-2.69-.5-2.22-1-4.44-1.5-6.65l-.9-3.98-.02-.08-.58-2.56-.3-1.3h0l-1.43-6.32-.57-2.53-1.69-7.44v-.02c-.18-.66-.33-1.35-.12-1.97,.28-.81,1.09-1.19,1.91-1.41,.12-.04,.24-.06,.36-.09,.68-.15,1.36-.28,2.04-.38,.39-.06,.77-.11,1.16-.16,2.05-.25,4.12-.37,6.19-.5,.38-.02,.76-.05,1.15-.07,.07,0,.15-.01,.22-.02,.87-.05,1.74-.09,2.61-.12,.16-.01,.33-.02,.49-.02,.44-.02,.89-.03,1.33-.04,2.26-.04,4.54,.02,6.79,.25,.87,.09,1.73,.21,2.59,.36,.73,.12,1.46,.27,2.18,.45,1.85,.45,3.71,1.07,5.4,1.93l.03,.02c.69,.35,1.21,.84,1.44,1.48,.07,.21,.12,.43,.13,.66,.04,.95-.28,1.99-.44,2.92Z"/><path class="cls-7" d="M310.29,81.23c-.09,.08-.17,.17-.25,.25-.5,.49-.99,.98-1.48,1.48-.18,.18-.36,.35-.53,.53-1.45,1.47-2.88,2.96-4.29,4.46-.48,.51-.96,1.03-1.43,1.54-1.96,2.12-3.89,4.27-5.77,6.45l-.57-2.53c1.61-1.85,3.26-3.69,4.93-5.49,.48-.52,.96-1.03,1.44-1.53,1.56-1.66,3.13-3.29,4.73-4.91,.04-.04,.08-.08,.12-.12,.87-.05,1.74-.09,2.61-.12,.16-.01,.33-.02,.49-.02Z"/><path class="cls-7" d="M321,81.81c-1.06,1.06-2.12,2.14-3.16,3.21-.72,.75-1.44,1.49-2.15,2.24-.49,.51-.97,1.02-1.45,1.52-1.68,1.78-3.34,3.57-4.98,5.38-.47,.52-.94,1.04-1.41,1.57-2.61,2.9-5.17,5.84-7.68,8.81-.44,.52-.89,1.05-1.33,1.58l-.58-2.56c.15-.18,.3-.35,.45-.53,.24-.29,.48-.57,.72-.85,2.3-2.71,4.64-5.39,7.02-8.03,.47-.52,.94-1.04,1.41-1.56,1.62-1.79,3.27-3.56,4.93-5.32,.48-.51,.96-1.02,1.44-1.52,1.38-1.45,2.77-2.88,4.17-4.3,.87,.09,1.73,.21,2.59,.36Z"/><path class="cls-7" d="M330.05,85.69c-1.42,1.55-2.83,3.1-4.23,4.67-1.19,1.33-2.37,2.67-3.54,4.02-.46,.53-.92,1.06-1.38,1.6-1.67,1.93-3.32,3.88-4.96,5.84-.46,.54-.91,1.09-1.36,1.64-1.26,1.51-2.5,3.04-3.73,4.57-1.12,1.39-2.22,2.78-3.32,4.18-.44,.55-.87,1.11-1.3,1.66-1.47,1.88-2.92,3.77-4.36,5.68-.2-.89-.4-1.79-.61-2.69,.51-.67,1.03-1.35,1.55-2.02,.64-.83,1.29-1.67,1.94-2.5,.43-.56,.87-1.1,1.31-1.66h0c2.34-2.97,4.72-5.91,7.14-8.82,.45-.54,.9-1.09,1.36-1.63,.82-.97,1.64-1.95,2.46-2.92,.17-.2,.34-.4,.51-.6,.06-.07,.12-.14,.18-.21,.6-.7,1.19-1.39,1.79-2.08,.46-.53,.92-1.06,1.38-1.59,2.53-2.9,5.1-5.78,7.71-8.62l.03,.02c.69,.35,1.21,.84,1.44,1.48Z"/><path class="cls-7" d="M327.62,101.48c-.1,.6-.21,1.21-.32,1.81-.1,.6-.21,1.2-.32,1.8-1.46,1.49-2.91,2.99-4.33,4.5-.48,.51-.96,1.02-1.43,1.53-2.41,2.6-4.77,5.23-7.06,7.91-.41,.46-.8,.93-1.2,1.39-.06,.07-.11,.13-.17,.2-1.85,2.17-3.66,4.37-5.43,6.6-.44,.54-.87,1.09-1.3,1.64-.53,.68-1.06,1.37-1.59,2.05-.2-.89-.4-1.77-.6-2.65,.21-.28,.43-.56,.65-.83,.23-.3,.47-.6,.71-.9,.2-.25,.4-.5,.6-.74,1.8-2.25,3.64-4.48,5.51-6.68,.45-.54,.9-1.07,1.37-1.6,2.18-2.53,4.4-5.03,6.68-7.49,.16-.17,.31-.34,.47-.5,.47-.52,.95-1.03,1.43-1.54,1.75-1.86,3.53-3.69,5.33-5.51,.33-.34,.67-.67,1.01-1.01Z"/><path class="cls-7" d="M322.88,126.45c-.1,.46-.19,.91-.29,1.36-.16,.77-.32,1.52-.49,2.28h0s0,0,0,0c-.05,.04-.08,.07-.11,.1-1.87,1.8-3.71,3.63-5.54,5.46-.5,.49-.99,.99-1.47,1.48-1.8,1.82-3.59,3.66-5.35,5.51-.49,.5-.97,1.01-1.45,1.51-.17,.17-.33,.35-.5,.53-.11-.44-.22-.88-.33-1.32h0c-.09-.37-.18-.73-.27-1.1h0c.32-.35,.64-.68,.97-1.02,.02-.02,.03-.04,.05-.05,1.76-1.84,3.54-3.67,5.34-5.49,.49-.5,.98-.99,1.47-1.48,1.85-1.87,3.73-3.71,5.63-5.55,.5-.49,1-.97,1.5-1.46,.28-.26,.55-.53,.83-.79Z"/><path class="cls-7" d="M318.7,144.73c-.32,1.29-.65,2.57-.99,3.85-.39,.37-.78,.75-1.17,1.12-.5,.49-1.01,.97-1.52,1.46-1.43,1.38-2.86,2.75-4.3,4.13-.04-.11-.07-.23-.11-.33-.2-.63-.4-1.26-.59-1.89,1.19-1.14,2.37-2.28,3.56-3.42,.51-.49,1.02-.98,1.53-1.47,1.19-1.15,2.39-2.3,3.58-3.44Z"/><path class="cls-7" d="M327.77,100.63c-.05,.29-.1,.57-.15,.86-.1,.6-.21,1.21-.32,1.81-.23-.27-.46-.54-.69-.81-1.87-2.2-3.77-4.37-5.71-6.52-.47-.52-.94-1.04-1.42-1.56-.44-.48-.88-.96-1.33-1.45-1.29-1.4-2.59-2.79-3.92-4.17-.48-.51-.96-1.01-1.45-1.51-1.4-1.45-2.81-2.88-4.24-4.31-.49-.49-.99-.98-1.49-1.47-.03-.03-.07-.07-.1-.1,.07,0,.15-.01,.22-.02,.87-.05,1.74-.09,2.61-.12,.09,.08,.17,.15,.24,.23,.7,.69,1.38,1.38,2.07,2.08,.71,.73,1.42,1.45,2.13,2.19,.49,.5,.97,1.01,1.45,1.51,1.75,1.83,3.48,3.68,5.18,5.55,.47,.52,.94,1.04,1.41,1.56,1.86,2.06,3.69,4.15,5.49,6.25Z"/><path class="cls-7" d="M325.54,113c-.01,.05-.02,.1-.03,.15-.16,.83-.31,1.66-.47,2.49-.11-.13-.22-.26-.33-.39-1.16-1.37-2.32-2.74-3.49-4.11-.45-.53-.91-1.07-1.37-1.6-1.74-2.04-3.49-4.07-5.26-6.1-.46-.54-.92-1.07-1.39-1.6-1.17-1.35-2.35-2.7-3.53-4.04-.6-.69-1.21-1.38-1.82-2.06-.46-.53-.93-1.06-1.39-1.58-1.38-1.55-2.76-3.11-4.14-4.65-.46-.52-.93-1.05-1.41-1.57-1.6-1.78-3.21-3.57-4.83-5.34,.12-.04,.24-.06,.36-.09,.68-.15,1.36-.28,2.04-.38,1.29,1.42,2.58,2.85,3.86,4.28,.47,.52,.94,1.04,1.4,1.56,.29,.32,.58,.64,.86,.97,1.09,1.22,2.18,2.44,3.26,3.67,.47,.53,.93,1.05,1.39,1.58,1.78,2.01,3.54,4.02,5.3,6.04,.46,.53,.93,1.07,1.39,1.6,1.31,1.51,2.61,3.02,3.91,4.53,.48,.56,.95,1.11,1.42,1.66,.46,.54,.92,1.07,1.37,1.6,.97,1.13,1.94,2.26,2.89,3.4Z"/><path class="cls-7" d="M322.6,127.81c-.16,.77-.32,1.52-.49,2.28h0c-.01,.07-.03,.12-.04,.19-.03-.02-.05-.05-.07-.07-.48-.5-.97-1-1.45-1.51-.58-.6-1.15-1.2-1.73-1.79-2.02-2.09-4.03-4.18-6.04-6.26-.49-.5-.98-1.01-1.46-1.51-1.7-1.76-3.4-3.52-5.09-5.28-.5-.51-.99-1.02-1.48-1.53-.25-.26-.5-.51-.74-.77-1.72-1.78-3.43-3.56-5.15-5.34-.02-.02-.03-.03-.05-.05l.03-.04-.58-2.56-.3-1.3c.25,.25,.5,.51,.74,.77,.06,.06,.12,.13,.19,.2l1.27,1.32,5.89,6.11h0l1.47,1.53,5.16,5.35,1.09,1.13c.12,.13,.25,.25,.37,.38,2.63,2.73,5.27,5.46,7.9,8.19l.55,.57Z"/><path class="cls-7" d="M320.09,139.03c-.18,.78-.36,1.55-.56,2.33-1.52-1.4-3.03-2.8-4.55-4.21l-1.54-1.43c-2.47-2.28-4.93-4.56-7.4-6.84-.52-.48-1.03-.95-1.55-1.43-.36-.33-.71-.66-1.06-.98h0c-.27-1.2-.54-2.4-.81-3.6l.11,.1c1.02,.95,2.05,1.89,3.07,2.84,.52,.48,1.03,.95,1.55,1.43,2.52,2.33,5.04,4.67,7.57,7.01,.51,.47,1.03,.95,1.54,1.42,1.21,1.12,2.42,2.24,3.63,3.36Z"/><path class="cls-7" d="M317.22,150.43c-.21,.79-.43,1.58-.65,2.37-.52-.55-1.03-1.1-1.54-1.64-.48-.51-.96-1.01-1.44-1.51-1.76-1.86-3.54-3.69-5.4-5.47-.17-.17-.35-.34-.53-.51-.1-.09-.2-.19-.3-.28h0c-.09-.37-.18-.73-.27-1.1h0c-.21-.87-.42-1.73-.63-2.59,.55,.5,1.1,1,1.64,1.51,.51,.48,1.02,.96,1.52,1.45,1.56,1.5,3.09,3.02,4.59,4.58,.3,.31,.6,.62,.89,.94,.47,.51,.95,1.02,1.42,1.53,.22,.24,.45,.48,.67,.73Z"/></g><path class="cls-11" d="M333.46,86.24c.34,1.18,.22,2.55-.53,3.59-.69,.95-1.87,1.49-3.11,1.42-1.25-.07-2.15-.74-2.64-1.78-.25-.54-.41-1.16-.82-1.62-.46-.54-1.21-.52-1.81-.17-1.42,.84-1.28,2.94-1.41,4.29-.16,1.63-.22,3.31-.54,4.92-.27,1.35-.93,2.67-2.26,3.39-1.12,.6-2.47,.55-3.47-.23-.96-.75-1.42-1.96-1.49-3.09-.1-1.63,.54-3.21,.48-4.83-.05-1.14-.59-2.58-1.87-2.98-1.58-.49-3.13,.75-4.51,1.26-1.25,.46-2.77,.6-3.79-.37-.88-.83-1.05-2.49-2.38-2.85-1.49-.4-2.9,.78-3.91,1.62-1.04,.86-2.18,1.73-3.64,1.76-1.39,.03-2.74-.66-3.41-1.79-.73-1.23-.53-2.58,.17-3.78,0,0,0-.01,0-.02,.7-1.2,.72-2.63,.05-3.84-2.45-4.45-2.91-9.85-1.16-14.58,1.91-5.15,6.28-9.43,11.65-11.61,5.91-2.39,12.81-2.14,18.62,.37,5.61,2.42,10.09,7.05,11.92,12.54,1.45,4.35,1.08,9.12-.98,13.21-.59,1.16-.56,2.49,.11,3.61,.3,.49,.56,1,.72,1.55Z"/><path class="cls-2" d="M296.35,63.11c-4.6,5.12-5.59,12.29-2.51,18.32,.24,.47,.99,.06,.75-.41-2.9-5.68-1.96-12.52,2.37-17.34,.36-.4-.26-.97-.61-.57Z"/><path class="cls-2" d="M311.79,83.6c-.93-.94-2.33-1.46-3.71-1.34-.74,.06-1.38,.35-2.06,.6-.79,.29-1.43,.27-2.17-.12-1.25-.66-2.28-1.41-3.78-.87-.99,.36-3.22,2.19-4.08,.74-.27-.45-1.02-.05-.75,.41,.7,1.18,2.28,1.02,3.39,.49,.78-.38,1.55-1.02,2.48-1.04,.72-.02,1.34,.41,1.91,.75,.54,.32,1.11,.61,1.76,.67,.79,.07,1.48-.26,2.19-.53,1.48-.56,3.11-.3,4.21,.81,.38,.38,.99-.19,.61-.57Z"/><path class="cls-2" d="M329.51,81.87c-.79-.44-1.74-.52-2.6-.19-.21,.08-.44,.22-.67,.23-.24,.01-.46-.13-.67-.23-.36-.17-.74-.32-1.15-.39-1.59-.3-3.34,.23-4.36,1.41-.35,.4,.26,.97,.61,.57,.91-1.05,2.47-1.52,3.87-1.12,.71,.2,1.28,.71,2.07,.51,.41-.11,.76-.34,1.19-.38,.45-.04,.87,.07,1.26,.28,.48,.27,.92-.43,.44-.7Z"/><path class="cls-8" d="M334.42,76.97c-.91,.81-2.3,1.16-3.45,.58-1.06-.54-1.41-1.55-1.99-2.45-.13-.2-.46-.67-.76-.6-.16,.04-.39,.42-.47,.54-.18,.25-.35,.5-.51,.75-.67,1.05-1.27,2.15-2.2,3.03-.89,.85-2.07,1.47-3.37,1.51-1.23,.03-2.48-.51-3.25-1.39-.3-.34-.52-.93-.9-1.19-.28-.19-.62,.04-.83,.24-.42,.39-.68,.92-1,1.37-.36,.5-.76,.97-1.21,1.4-1.78,1.66-4.72,2.55-6.99,1.17-2.43-1.47-2.42-4.25-2.67-6.64-.07-.66-.2-1.78-.93-2.1-.44-.19-1.09-.03-1.55,.01-.59,.06-1.19,.04-1.75-.16-1.21-.44-1.69-1.54-1.9-2.66-.08-.43-.13-.9-.34-1.29s-.49-.35-.93-.24c-1.25,.32-2.35,.99-3.7,.89-1.29-.09-2.4-.84-2.74-2.02-.58-2.01,.82-4.27,2.02-5.86,1.66-2.19,3.92-3.99,6.51-5.17,1.56-.76,3.24-1.35,4.9-1.78,5.31-1.36,11.11-1.86,16.38-.11,4.76,1.58,8.83,4.65,11.47,8.66,1.32,2,2.28,4.23,2.83,6.53,.28,1.16,.48,2.37,.53,3.57,.05,1.22-.2,2.55-1.19,3.42Z"/><path class="cls-13" d="M336.98,66.45c.3,1.34,.52,3.2-.48,4.35-1.03,1.18-2.8,.75-3.74-.28-1.21-1.32-.88-3.17-1.66-4.65-.35-.66-.94-1.31-1.8-1.33-.89-.01-1.65,.66-2.09,1.33-.98,1.5-.77,3.43-1.89,4.88-.87,1.12-2.43,1.9-3.85,1.16-1.12-.59-1.59-1.77-2.4-2.63-.43-.44-.96-.77-1.62-.65-.68,.12-1.25,.58-1.79,.94-1.11,.74-2.45,1.27-3.71,.47-1.19-.77-1.69-2.19-1.84-3.46-.18-1.51-.11-3.45-1.72-4.34-1.69-.94-3.81-.41-5.66-.47-3.72-.11-6.11-3.05-7.6-5.91-3.05-5.84-2.74-13.1,1.08-18.58,.1-.14,.21-.28,.31-.42,.69-1.06,1.5-2.07,2.43-2.99,4.58-4.57,11.39-6.88,18.05-5.83,6.82,1.07,12.71,5.39,15.12,11.43,1.19,2.99,1.52,6.27,.94,9.41-.3,1.65-.93,3.17-1.64,4.69-.78,1.68-1.45,3.52-.26,5.18,.92,1.29,2.42,2.14,3.5,3.31,1.16,1.25,1.97,2.78,2.32,4.4Z"/><path class="cls-4" d="M325.51,32.41c-.04,1.31-1.3,2.11-2.59,2.29-1.68,.23-3.19-.63-4.84-.72-.7-.04-1.47,.05-2.02,.49-.52,.41-.71,1.04-.86,1.64-.28,1.12-.47,2.33-1.54,3.07-.43,.3-.96,.45-1.49,.36-.62-.1-1.07-.49-1.63-.7-1.44-.56-1.57,1.49-1.7,2.31-.15,.98-.6,2.11-1.81,2.26-1.3,.16-2.23-1.01-2.74-1.96-.53-.97-1.48-2.57-2.83-1.49-.63,.5-.79,1.31-.85,2.04-.07,.75-.07,1.51-.1,2.27-.07,1.62-.05,3.26-.23,4.87-.14,1.24-.5,2.48-1.46,3.4-1.95,1.88-5.1,.83-6.2-1.33-1.39-2.72,.05-5.62,.93-8.26,.49-1.47,.87-3.11,.36-4.62-.04-.13-.1-.26-.15-.38-.25-.54-.69-.99-1.24-1.27-5.25-2.66-8.54-7.82-9.1-13.31-.59-5.76,1.83-11.63,6.31-15.64,4.57-4.09,11.18-5.95,17.42-4.94,5.84,.94,11.09,4.54,13.81,9.41,2.37,4.26,2.67,9.37,.94,13.85-.43,1.13,0,2.38,1.05,3.07h.02c1.19,.79,2.59,1.8,2.54,3.3Z"/><path class="cls-9" d="M307.4,3.97c.71,1.73,.08,3.78-1.88,4.46-.8,.28-1.74,.27-2.5-.11-.89-.44-1.21-1.62-2.18-1.87-1.09-.28-2.06,.61-2.32,1.51-.33,1.14,.08,2.32,.47,3.4,.68,1.85,1.5,4.44-.54,5.84-.75,.52-1.77,.72-2.62,.31-.88-.41-1.31-1.31-1.44-2.18-.17-1.15,.26-2.32,.02-3.47-.2-.96-1.31-2.05-2.32-1.16-.95,.84-.65,2.38-.73,3.47-.07,.97-.33,1.97-1.1,2.67-.82,.75-1.82,.64-2.85,.83-1.22,.23-1.29,1.35-1.26,2.32,.03,1.29,.1,2.58,.14,3.88,.04,1.07,.15,2.16-.04,3.22-.17,.91-.66,1.78-1.55,2.26-.83,.43-1.86,.5-2.76,.23-2.1-.63-3.04-2.78-2.95-4.69,.12-2.46,1.59-4.6,2.33-6.92,.72-2.24,.97-4.58,1.76-6.8,.73-2.06,1.98-3.86,3.71-5.31,1.49-1.24,3.17-2.17,4.96-2.9,1.09-.58,2.22-1.08,3.38-1.5,2.25-.79,4.69-1.17,7.08-.82,2.16,.31,4.37,1.35,5.19,3.34Z"/><path class="cls-16" d="M297.51,15.83c-1.13-1.21-.42-3.04-.53-4.47-.1-1.41-.96-2.65-2.42-3.15-1.4-.47-3.04-.01-3.97,1.05-1.01,1.17-1.11,2.7-1.48,4.1-.21,.79-.53,1.67-1.27,2.18-.64,.44-1.61,.62-2.24,.08-.41-.35-1.03,.22-.61,.57,.97,.83,2.43,.67,3.43-.05,1.28-.92,1.54-2.53,1.84-3.91,.32-1.47,.91-3.1,2.73-3.37,.83-.12,1.67,.14,2.28,.68,.65,.58,.87,1.35,.87,2.17,.01,1.62-.49,3.34,.77,4.69,.37,.39,.98-.18,.61-.57Z"/><path class="cls-16" d="M304.74,6.62c-.09,0-.19,0-.28,0-.04,0-.08,0-.12-.01h-.06c-.18-.04-.35-.09-.51-.15-.04-.02-.11-.04-.19-.08-.08-.04-.15-.08-.22-.12-.15-.09-.23-.15-.36-.27-.13-.12-.19-.19-.28-.32-.05-.07-.1-.15-.14-.22-.02-.04-.04-.08-.06-.12-.03-.07,0,.01-.03-.06-.14-.33-.18-.57-.17-.91,0-.21-.2-.41-.43-.4-.24,0-.43,.18-.43,.4-.02,.81,.33,1.62,.95,2.2,.62,.57,1.49,.89,2.37,.88,.23,0,.45-.18,.43-.4-.01-.21-.19-.41-.43-.4Z"/><g><path class="cls-16" d="M310.28,50.77c-.1,.95-.9,1.69-1.94,1.72-1.06,.03-1.92-.72-2.04-1.68-.11-.89,.57-1.75,1.49-1.98,.1-.02,.2,0,.29,.03,.2-.03,.42-.03,.64,.01,.94,.17,1.66,1.01,1.56,1.9Z"/><path class="cls-16" d="M305.64,45.75c.4,.89,.25,2.06-.59,2.7-.4,.31-.9,.48-1.42,.41-.48-.06-.93-.28-1.23-.63-.45-.52-.49-1.18-.21-1.74,.05-.64,.34-1.24,.99-1.6,.4-.23,.93-.32,1.38-.17,.52,.17,.87,.56,1.08,1.02Z"/><path class="cls-16" d="M315.06,42.1c-.32-.6-.36-1.26-.08-1.88,.05-.11,.12-.22,.19-.33,.39-.8,1.13-1.44,2.1-1.67,1.43-.33,3.22,.27,3.67,1.68,.24,.77-.07,1.58-.48,2.25-.36,.57-.83,1.15-1.47,1.45-1.42,.67-3.27-.26-3.92-1.51Z"/><path class="cls-16" d="M306.38,45.58c-.06-.05-.1-.1-.12-.18-.07-.31-.01-.64,.19-.9,.11-.14,.23-.27,.4-.35,.16-.09,.33-.13,.52-.15,.58-.05,1.18,.34,1.29,.87,.07,.29,.02,.59-.13,.85-.15,.25-.4,.43-.7,.51-.25,.07-.54,.06-.79-.03-.31-.12-.54-.32-.66-.62Z"/><path class="cls-16" d="M305.28,54.27c.13,.72-.28,1.44-1.03,1.7-.7,.24-1.56-.05-1.93-.65-.1-.16-.15-.33-.17-.51-.02-.04-.03-.09-.04-.14-.07-.81,.69-1.57,1.56-1.58,.73-.01,1.48,.5,1.6,1.18Z"/><path class="cls-16" d="M316.3,55.78c.12,.94-.53,1.82-1.5,2.09-.96,.27-2.02-.21-2.41-1.06-.25-.54-.16-1.16,.17-1.65,.2-.7,.96-1.24,1.79-1.18,1.05,.08,1.83,.84,1.95,1.79Z"/><path class="cls-16" d="M318.99,47.18c.07,.54-.1,1.09-.47,1.51-.36,.41-.9,.66-1.46,.73-1.16,.14-2.2-.66-2.36-1.72-.08-.54,.09-1.08,.49-1.49l.03-.02c.26-.39,.7-.69,1.19-.8,.63-.14,1.29,.03,1.79,.39,.47,.35,.73,.85,.8,1.4Z"/><path class="cls-16" d="M321.86,51.26c-.03,.3-.15,.58-.39,.79-.23,.2-.52,.31-.83,.32-.27,.01-.56-.06-.78-.21-.28-.19-.44-.45-.48-.77,0-.11,0-.23,.03-.35-.03-.33,.08-.67,.36-.89,.31-.24,.71-.33,1.11-.23,.61,.17,1.04,.74,.97,1.33Z"/><path class="cls-16" d="M313.03,46.42c-.86,.55-2.08,.33-2.64-.49-.17-.25-.23-.52-.23-.78-.03-.2-.01-.4,.04-.59,.15-.51,.43-1.06,.87-1.4,.43-.33,1-.51,1.55-.37,.48,.12,.88,.49,1.09,.9,.5,.95,.26,2.13-.69,2.74Z"/><path class="cls-16" d="M325.75,46.68c0,.61-.2,1.23-.68,1.67-.48,.44-1.13,.61-1.79,.66-.63,.04-1.35,0-1.95-.18-.7-.22-1.14-.72-1.22-1.39-.08-.63,.13-1.28,.39-1.85,.09-.19,.2-.37,.3-.54,.1-.38,.31-.73,.64-.99,.6-.49,1.48-.59,2.22-.35,1.3,.42,2.08,1.73,2.08,2.98Z"/><path class="cls-16" d="M325.76,39.2c.19,.76-.22,1.58-1,1.91-.39,.16-.84,.2-1.25,.06-.39-.14-.75-.38-.94-.73-.31-.55-.19-1.24,.25-1.68,.2-.36,.55-.64,1-.72,.42-.07,.87-.02,1.23,.21,.36,.22,.62,.57,.71,.96Z"/><path class="cls-16" d="M329.86,44.05c-.77,.3-1.7,.06-2.17-.58-.46-.63-.33-1.58,.27-2.09,.08-.07,.18-.1,.27-.11,.2-.14,.42-.24,.66-.27,.85-.12,1.74,.37,1.94,1.16,.19,.75-.2,1.59-.98,1.89Z"/></g><path class="cls-8" d="M313.51,30.03c-.07,.79-.56,1.52-1.28,1.96-.82,.5-1.73,.34-2.64,.53-.85,.17-1.34,.74-1.9,1.31-.69,.71-1.5,.85-2.5,.7-.94-.14-1.87-.43-2.84-.3-.91,.12-1.67,.59-2.36,1.13-.72,.57-1.38,1.26-2.26,1.62-.72,.3-1.74,.29-2.22-.38-.31-.43-1.06-.03-.75,.41,.77,1.09,2.31,1.17,3.49,.63,1.49-.67,2.44-2.32,4.14-2.61,1.72-.29,3.51,.94,5.16-.01,.6-.35,.96-.92,1.48-1.35,.7-.57,1.67-.38,2.51-.55,1.58-.31,2.71-1.63,2.85-3.09,.05-.52-.82-.51-.87,0Z"/><path class="cls-8" d="M293.73,33.84c-2.63-.94-4.72-3.04-5.57-5.53-.17-.49-1.01-.28-.84,.21,.94,2.78,3.25,5.04,6.18,6.09,.52,.19,.75-.59,.23-.78Z"/><path class="cls-8" d="M294.82,32.6c-.16-.03-.32-.07-.48-.12l-.04-.02s-.07-.03-.11-.05c-.07-.03-.15-.07-.22-.11-.03-.02-.07-.04-.1-.06l-.04-.03c-.06-.05-.12-.09-.17-.14-.06-.05-.12-.11-.17-.17-.02-.03-.1-.13-.03-.03-.02-.03-.05-.07-.08-.1-.13-.17-.39-.27-.59-.14-.19,.11-.29,.36-.16,.55,.45,.61,1.16,1.07,1.96,1.2,.12,.02,.23,.02,.33-.04,.09-.05,.18-.14,.2-.24,.05-.2-.06-.46-.3-.5Z"/><path class="cls-8" d="M317.48,9.6c-.33-.41-1.08-.01-.75,.41,1.97,2.47,3.06,5.46,3.08,8.53,0,.52,.87,.52,.87,0-.02-3.21-1.14-6.36-3.19-8.94Z"/><path class="cls-8" d="M319.02,18.53l-.35-1.68c-.04-.21-.32-.34-.53-.28-.24,.07-.35,.27-.3,.5l.35,1.68c.04,.21,.32,.34,.53,.28,.24-.07,.35-.27,.3-.5Z"/><path class="cls-10" d="M326.77,58.01c-.79,.31-1.37,.9-2.08,1.33-.8,.49-1.47,.43-2.33,.14-.64-.21-1.32-.44-1.99-.25-.59,.17-.96,.62-1.24,1.1-.31,.54-.57,1.31-1.37,1.25-.8-.06-1.5-.59-2.31-.71-1.52-.22-3.06,.46-3.87,1.67-.3,.44,.46,.85,.75,.41,.44-.65,1.15-1.1,1.96-1.25,.86-.17,1.56,.1,2.35,.4,.76,.29,1.6,.47,2.3-.05,.53-.39,.73-1,1.07-1.52,.52-.77,1.25-.56,2.05-.3,.79,.26,1.55,.44,2.36,.15,.84-.3,1.44-.93,2.18-1.37,.53-.32,2.01-.72,2.06,.29,.03,.52,.9,.52,.87,0-.07-1.29-1.64-1.73-2.76-1.29Z"/><path class="cls-10" d="M322.19,69.55c-1.14-.64-1.93-1.8-2.04-3.01-.02-.22-.18-.4-.43-.4-.22,0-.46,.18-.43,.4,.15,1.52,1.06,2.91,2.48,3.7,.48,.27,.92-.43,.44-.7Z"/><path class="cls-10" d="M304.02,58.88c-2.59,.31-5.02-1.2-5.64-3.56-.13-.5-.97-.29-.84,.21,.7,2.68,3.52,4.51,6.48,4.16,.23-.03,.43-.17,.43-.4,0-.2-.2-.43-.43-.4Z"/><path class="cls-10" d="M314.04,68.78c-.09-.04-.18-.08-.27-.13-.03-.01-.05-.03-.08-.05l-.02-.02-.03-.02s-.04-.03-.06-.05c-.07-.06-.14-.13-.2-.2-.02-.02-.03-.04-.05-.07-.03-.04-.05-.08-.08-.12-.02-.04-.05-.08-.07-.12v-.02l-.03-.04c-.04-.09-.06-.18-.08-.27,0-.02,0-.05-.01-.07,0-.05-.01-.1-.01-.14,0-.05,0-.09,0-.14,0-.02,0-.05,0-.07,0-.02,0-.02,0-.02,.03-.2-.06-.43-.3-.48-.21-.04-.5,.06-.53,.28-.09,.51,0,1.02,.27,1.48,.24,.42,.64,.78,1.12,.96,.11,.04,.21,.07,.33,.04,.1-.03,.21-.1,.26-.19,.1-.17,.07-.46-.16-.55Z"/><path class="cls-16" d="M313.45,6.12s-.02-.04-.04-.06c-.06-.08-.12-.15-.19-.22,0-.01-.02-.02-.03-.03-.02-.02-.04-.03-.05-.05-.09-.07-.18-.14-.28-.19-.01,0-.02-.01-.04-.02-.09-.04-.19-.08-.29-.11-.02,0-.05-.02-.08-.02-.12-.02-.23-.04-.35-.04-.01,0-.03,0-.04,0-.11,0-.22,.02-.32,.04-.02,0-.05,0-.07,.02-.09,.03-.19,.07-.28,.11l-.03,.02-.03,.02c-.08,.05-.17,.11-.24,.17-.02,.01-.04,.03-.05,.05-.09,.09-.19,.2-.25,.32-.04,.09-.09,.18-.12,.27,0,.01,0,.02-.01,.04v.06c-.05,.1-.07,.2-.07,.31,0,.11,.02,.21,.06,.31,0,.02,0,.03,0,.05,0,.02,.01,.05,.02,.07,.04,.09,.07,.18,.12,.26,0,.01,.02,.02,.02,.04,.07,.12,.16,.21,.28,.28,.08,.06,.17,.11,.26,.14h0s.02,.01,.03,.02c.05,.02,.11,.04,.15,.06,.05,.02,.11,.05,.16,.06h.03c.1,.03,.21,.04,.31,.05,.02,0,.05,0,.07,0h.03c.1-.01,.21-.02,.31-.04,.02,0,.05-.01,.07-.02,.09-.03,.19-.07,.28-.11h.03s.04-.04,.06-.05c.09-.06,.19-.12,.27-.19l.02-.02c.07-.07,.13-.15,.19-.23,.01-.02,.03-.03,.04-.05l.02-.03c.04-.09,.09-.18,.12-.27,.02-.06,.02-.13,.03-.19,0-.07,.03-.13,.02-.2-.02-.27-.06-.39-.18-.63Z"/><path class="cls-16" d="M308.13,8.27c-1.4,0-1.4,2.01,0,2.01s1.4-2.01,0-2.01Z"/><path class="cls-16" d="M314.11,10.89c0-.06-.03-.21-.04-.27h0v-.02s0-.02-.01-.03c-.1-.25-.12-.28-.31-.49,0,0-.01-.01-.02-.02-.08-.06-.16-.12-.24-.18-.05-.03-.12-.05-.16-.06-.04-.01-.11-.05-.16-.06h-.02s-.13-.02-.15-.02c-.03,0-.1-.01-.15-.02-.01,0-.02,0-.03,0h-.02s-.12,.02-.15,.02c-.03,0-.1,.01-.15,.02-.01,0-.02,0-.04,0h-.03c-.08,.04-.18,.08-.26,.11-.01,0-.02,.01-.03,.02h-.02c-.06,.06-.16,.13-.23,.18,0,0-.02,.01-.03,.02-.03,.04-.07,.08-.1,.11-.02,.03-.07,.07-.09,.11,0,0-.01,.02-.02,.03-.02,.04-.09,.2-.11,.24h0v.03s-.02,.11-.03,.15c0,.04-.02,.1-.02,.15,0,.14,.03,.27,.09,.39,.04,.12,.12,.23,.22,.32,.05,.05,.1,.08,.15,.12,.01,.01,.02,.02,.03,.04h0v.02h.02s.18,.14,.22,.17h.02c.09,.06,.19,.09,.29,.13h.03l.14,.02c.1,.02,.19,.02,.29,0,.04,0,.11,0,.16-.02,.09-.03,.19-.07,.27-.11,0,0,.02,0,.03-.01,.09-.05,.17-.11,.24-.17,0,0,.02-.01,.02-.02h0c.05-.06,.13-.15,.17-.21h0v-.04h.02c.03-.07,.09-.2,.11-.26h0v-.05h.01c.01-.08,.03-.2,.04-.28,0-.02,0-.04,0-.06Z"/><path class="cls-16" d="M310.38,12.15l-.11-.24c-.1-.15-.23-.27-.39-.36l-.26-.1c-.19-.05-.38-.05-.58,0l-.24,.07c-.14,.03-.26,.09-.37,.18-.12,.07-.21,.17-.28,.28-.08,.12-.12,.24-.13,.37-.03,.13-.03,.27,.02,.4l.11,.24c.1,.15,.23,.27,.39,.36l.26,.1c.19,.05,.38,.05,.58,0l.24-.07c.14-.03,.26-.09,.37-.18,.12-.07,.21-.17,.28-.28,.08-.12,.12-.24,.13-.37,.03-.13,.03-.27-.02-.4Z"/><path class="cls-16" d="M315.56,14.04c-.04-.12-.12-.23-.22-.32-.1-.1-.21-.17-.35-.21-.13-.06-.27-.09-.42-.09l-.29,.04c-.18,.05-.34,.13-.48,.26l-.17,.2c-.1,.16-.15,.33-.15,.51v.15c0,.14,.03,.27,.09,.39,.04,.12,.12,.23,.22,.32,.1,.1,.21,.17,.35,.21,.13,.06,.27,.09,.42,.09l.29-.04c.18-.05,.34-.13,.48-.26l.17-.2c.1-.16,.15-.33,.15-.51v-.15c0-.14-.03-.27-.09-.39Z"/><path class="cls-16" d="M298.22,3.58c0-.06-.01-.12-.03-.18-.03-.11-.09-.23-.14-.33-.07-.14-.18-.26-.29-.37-.11-.11-.25-.21-.39-.28-.11-.06-.23-.1-.34-.14-.04-.01-.07-.02-.11-.03-.3-.05-.5-.06-.8,0-.02,0-.04,0-.06,.01-.1,.03-.21,.08-.3,.12-.02,0-.04,.02-.06,.03-.02,.01-.04,.03-.06,.04-.09,.04-.17,.1-.24,.16-.03,.02-.05,.04-.07,.07-.08,.09-.16,.18-.22,.28-.06,.1-.1,.21-.14,.31-.01,.03-.02,.06-.03,.1-.03,.14-.06,.3-.04,.44,.01,.12,.02,.24,.06,.35,.02,.07,.06,.14,.09,.21,.03,.07,.06,.14,.1,.2,.06,.1,.15,.19,.22,.27,.02,.02,.05,.04,.07,.06,.09,.07,.19,.15,.3,.21,.05,.03,.12,.05,.17,.07,.05,.02,.11,.05,.17,.06,.02,0,.03,0,.05,.01,.11,.02,.23,.03,.34,.04,.03,0,.07,0,.1,0,.13,0,.26-.02,.39-.05,.12-.03,.24-.08,.35-.13,.04-.01,.07-.03,.1-.05,.1-.06,.2-.14,.3-.21,.03-.02,.06-.05,.08-.07,.08-.09,.16-.18,.22-.27,.06-.1,.11-.22,.15-.32,.01-.03,.02-.06,.03-.09,.02-.12,.05-.24,.05-.36,0-.06-.01-.12-.02-.18Z"/><path class="cls-16" d="M301.23,1.73c-.04-.12-.12-.23-.22-.32l-.22-.16c-.17-.09-.35-.14-.55-.14l-.29,.04c-.18,.05-.34,.13-.48,.26l-.08,.07c-.11,.09-.18,.2-.22,.32-.07,.12-.1,.25-.09,.39,0,.14,.03,.27,.09,.39,.04,.12,.12,.23,.22,.32l.22,.16c.17,.09,.35,.14,.55,.14l.29-.04c.18-.05,.34-.13,.48-.26l.08-.07c.11-.09,.18-.2,.22-.32,.07-.12,.1-.25,.09-.39,0-.14-.03-.27-.09-.39Z"/><path class="cls-16" d="M299.43,3.5c-1.4,0-1.4,2.01,0,2.01s1.4-2.01,0-2.01Z"/><path class="cls-16" d="M303.68,10.25s-.02-.08-.03-.11c-.05-.14-.12-.3-.21-.43-.07-.09-.15-.19-.23-.27-.09-.09-.2-.16-.3-.22-.03-.02-.06-.04-.1-.05-.1-.04-.2-.08-.3-.12-.02,0-.05-.01-.07-.02-.11-.02-.23-.04-.35-.04-.02,0-.04,0-.07,0-.07,0-.14,.01-.21,.02-.07,0-.14,.01-.2,.03-.07,.01-.14,.04-.21,.06-.1,.02-.2,.06-.29,.11-.11,.06-.21,.14-.3,.22-.09,.08-.17,.18-.24,.28-.02,.03-.05,.06-.06,.09-.06,.11-.11,.22-.15,.33-.01,.04-.02,.07-.03,.11-.02,.12-.05,.25-.05,.37,0,.08,.02,.16,.03,.23,.01,.08,.02,.16,.05,.24,.04,.11,.09,.22,.15,.32,.06,.1,.16,.21,.23,.29,.11,.12,.25,.22,.39,.29,.15,.07,.31,.14,.47,.17,.12,.02,.27,.04,.39,.04,.13,0,.28-.03,.39-.04,.17-.03,.33-.1,.48-.17,.03-.02,.06-.03,.1-.05,.1-.07,.22-.14,.3-.23,.2-.2,.29-.36,.39-.61,.01-.03,.02-.07,.03-.1,.02-.12,.05-.25,.05-.37,0-.12-.03-.24-.05-.36Z"/><path class="cls-16" d="M304.82,11.86c-1.4,0-1.4,2.01,0,2.01s1.4-2.01,0-2.01Z"/><path class="cls-16" d="M303.98,16.6c-.02-.1-.1-.23-.13-.31-.06-.12-.16-.23-.25-.33-.1-.1-.22-.18-.34-.26-.03-.02-.05-.03-.08-.04-.11-.05-.23-.1-.34-.13-.03,0-.07-.01-.1-.02-.12-.02-.25-.04-.37-.04-.02,0-.03,0-.05,0-.11,0-.22,.02-.32,.04-.03,0-.06,.01-.09,.02-.1,.03-.2,.07-.29,.12-.01,0-.03,.01-.04,.02-.1,.06-.2,.13-.29,.21-.11,.09-.18,.2-.22,.32-.03,.05-.05,.1-.06,.15-.04,.07-.08,.16-.1,.24,0,.01,0,.03,0,.04-.02,.1-.03,.2-.04,.31,0,.03,0,.05,0,.08,0,.11,.02,.23,.05,.34,0,.02,.02,.05,.03,.07,.03,.07,.09,.22,.15,.31,.03,.05,.07,.09,.11,.13,.03,.04,.07,.09,.11,.13,.01,.01,.02,.02,.03,.03,.08,.06,.16,.12,.25,.18,.02,.02,.05,.03,.07,.04,.1,.04,.22,.1,.34,.13,.01,0,.03,0,.04,0,.1,.02,.21,.03,.32,.04,.03,0,.06,0,.1,0,.14-.01,.31-.02,.45-.07,.11-.04,.22-.08,.33-.13,.03-.01,.05-.03,.08-.04,.12-.08,.25-.16,.34-.26,.06-.07,.15-.17,.21-.26,.06-.1,.1-.2,.14-.31,0-.02,.02-.05,.02-.07,.02-.1,.04-.2,.04-.3,0-.02,0-.03,0-.05,0-.11-.02-.23-.05-.34Z"/><path class="cls-16" d="M309.65,17.17l-.04-.27h0v-.02s-.06-.12-.06-.12c0,0-.04-.08-.06-.12h0c-.05-.08-.11-.15-.18-.22h0l-.22-.16h0s-.15-.06-.13-.06c-.01,0-.09-.04-.13-.05-.14-.04-.29-.05-.43-.02-.03,0-.06,.01-.09,.01l-.12,.02c-.18,.05-.34,.13-.48,.26h0c-.06,.07-.13,.14-.17,.22h0s-.11,.24-.11,.25h0c-.02,.1-.03,.19-.04,.28h0c0,.05,.02,.16,.02,.15,0,0,0,.1,.02,.14h0s.05,.12,.06,.13c0,.02,.04,.08,.06,.12h0v.02l.17,.2h.01s.21,.16,.22,.17h.01c.27,.12,.26,.13,.56,.15h0s.15-.02,.15-.02c0,0,.1,0,.15-.02h0s.26-.1,.26-.1h.01s.22-.16,.22-.16h0s.07-.1,.09-.12c.02-.02,.06-.07,.08-.09h0s.11-.24,.11-.25h0v-.02h0s.04-.26,.04-.27h0s0-.01,0-.02h0Z"/></g><g><g><path class="cls-14" d="M148.39,123.36c-.02,.11-.05,.22-.07,.33-.11,.57-.22,1.14-.33,1.7-.26,1.3-.51,2.61-.77,3.91-.18,.91-.36,1.81-.54,2.71-.02,.11-.04,.22-.06,.32-.13,.68-.27,1.35-.41,2.03-.06,.32-.13,.65-.19,.97-.06,.29-.12,.59-.18,.88-.12,.62-.25,1.24-.38,1.86-.12,.62-.24,1.23-.38,1.85-.11,.55-.23,1.1-.34,1.65-.14,.68-.28,1.36-.42,2.05-.04,.17-.07,.35-.11,.52-.19,.91-.38,1.82-.57,2.72-.08,.39-.17,.78-.25,1.17-.02,.05-.02,.1-.04,.16-.18,.85-.37,1.7-.55,2.55-.03,.14-.06,.29-.1,.43-.15,.68-.3,1.36-.45,2.04-.1,.48-.21,.96-.32,1.43-.39,1.73-1.93,2.96-3.71,2.96h-18.97c-1.73,0-3.25-1.17-3.68-2.85,0,0,0-.02,0-.03-.22-.85-.44-1.69-.66-2.54-.02-.07-.04-.14-.06-.22-.15-.58-.3-1.16-.45-1.74-.21-.79-.41-1.58-.62-2.37-.24-.91-.47-1.81-.7-2.71l-.05-.17-.51-1.98-.5-1.93v-.02l-.02-.07-.68-2.63-.35-1.33h0l-.73-2.81-.5-1.93-.05-.22-.4-1.53-.36-1.38h0l-.31-1.22-.58-2.23-.5-1.93-.9-3.48v-.02c-.21-.68-.38-1.39-.14-2.02,.05-.12,.11-.24,.19-.34,.32-.45,.85-.74,1.44-.93,.2-.07,.41-.12,.62-.17,.15-.04,.31-.07,.46-.1,.39-.08,.78-.16,1.17-.22,.86-.12,1.71-.23,2.56-.32,.65-.07,1.3-.13,1.95-.18,.71-.06,1.42-.11,2.13-.15,.14-.01,.27-.02,.41-.02,.64-.04,1.29-.08,1.93-.12,1.22,1.09,2.43,2.18,3.62,3.29,1.28-1.16,2.57-2.31,3.88-3.44,0-.01,.02-.02,.02-.02,.43,.36,.85,.72,1.27,1.09,.42-.37,.84-.73,1.27-1.08,0,0,.02,.02,.03,.02,.65,.56,1.29,1.12,1.94,1.69,0,0,0,0,.02,.01,.65,.57,1.29,1.15,1.92,1.73,1.15-1.06,2.31-2.12,3.47-3.16,.42,.05,.83,.11,1.24,.17,.29,.05,.59,.09,.88,.14l.36,.06c.45,.08,.89,.17,1.33,.26,.57,.12,1.13,.25,1.69,.4,1.51,.38,2.99,.86,4.37,1.46,.1,.04,.19,.08,.29,.12l.03,.02c.46,.2,.86,.45,1.16,.76,.24,.22,.42,.48,.53,.77,.09,.21,.14,.44,.15,.68,.05,.87-.25,1.8-.45,2.67Z"/><path class="cls-7" d="M117.42,115.82c-.07,.07-.14,.14-.21,.2-1.63,1.58-3.22,3.19-4.78,4.84-.38,.4-.76,.81-1.13,1.21-1.11,1.2-2.2,2.41-3.27,3.64l-.5-1.93c.84-.95,1.68-1.89,2.54-2.82,.37-.41,.75-.81,1.13-1.21,1.2-1.27,2.42-2.53,3.67-3.76,.71-.06,1.42-.11,2.13-.15,.14-.01,.27-.02,.41-.02Z"/><path class="cls-7" d="M128.15,116.63c-.86,.73-1.7,1.47-2.54,2.22-.48,.43-.96,.86-1.43,1.29-.41,.37-.81,.74-1.22,1.12-1.66,1.54-3.3,3.11-4.9,4.71-.39,.39-.78,.78-1.17,1.17-1.61,1.63-3.19,3.28-4.74,4.97-.37,.41-.74,.81-1.11,1.22-.28,.3-.55,.6-.81,.9l-.5-1.93s.05-.06,.09-.09c.36-.41,.74-.81,1.11-1.22,1.55-1.68,3.13-3.34,4.74-4.97,.39-.39,.78-.79,1.17-1.17,1.61-1.6,3.25-3.18,4.91-4.71,.41-.38,.81-.75,1.22-1.12,1.28-1.16,2.57-2.31,3.88-3.44,0-.01,.02-.02,.02-.02,.43,.36,.85,.72,1.27,1.09Z"/><path class="cls-7" d="M138.93,116.16c-1.48,1.3-2.94,2.62-4.38,3.96-.16,.14-.31,.29-.47,.43-.25,.23-.49,.46-.74,.69-1.35,1.26-2.68,2.54-4.01,3.83-.4,.38-.79,.77-1.18,1.16-1.58,1.56-3.14,3.13-4.69,4.74-.38,.4-.77,.8-1.15,1.2-.61,.63-1.21,1.27-1.81,1.91-.98,1.04-1.94,2.09-2.89,3.15-.38,.41-.74,.82-1.11,1.23-1.35,1.5-2.68,3.02-3.98,4.55l-.5-1.93v-.02c.56-.66,1.13-1.32,1.71-1.97,.53-.6,1.05-1.19,1.58-1.78,.37-.41,.74-.82,1.11-1.23,1.54-1.7,3.11-3.39,4.7-5.05,.38-.4,.76-.8,1.15-1.2,1.52-1.58,3.06-3.14,4.62-4.68,.03-.03,.06-.06,.09-.08,.39-.39,.79-.78,1.18-1.16,1.31-1.28,2.63-2.54,3.97-3.79,.4-.38,.8-.75,1.21-1.12,1.15-1.06,2.31-2.12,3.47-3.16,.42,.05,.83,.11,1.24,.17,.29,.05,.59,.09,.88,.14Z"/><path class="cls-7" d="M148.15,119.24c-.65,.57-1.29,1.15-1.93,1.73-.41,.36-.82,.73-1.23,1.1-.41,.36-.81,.73-1.22,1.09-1.05,.95-2.1,1.89-3.14,2.85-.41,.37-.81,.74-1.22,1.12-1.41,1.29-2.82,2.59-4.22,3.91-.41,.37-.8,.75-1.2,1.13-1.57,1.48-3.12,2.97-4.66,4.48-.39,.38-.79,.77-1.17,1.17-.55,.54-1.1,1.09-1.65,1.65-1.09,1.1-2.18,2.22-3.25,3.35-.38,.4-.76,.8-1.13,1.21-1.55,1.66-3.08,3.35-4.58,5.07-.36,.42-.72,.84-1.08,1.25-.53,.62-1.05,1.24-1.56,1.87-.02-.07-.04-.14-.06-.22-.15-.58-.3-1.16-.45-1.74,.29-.34,.57-.68,.86-1.02,.36-.42,.72-.84,1.08-1.26,.57-.65,1.14-1.3,1.71-1.94,.96-1.07,1.93-2.13,2.91-3.18,.38-.41,.76-.81,1.14-1.21,1.6-1.69,3.23-3.35,4.88-4.99,.39-.39,.78-.78,1.18-1.17,1.54-1.52,3.11-3.02,4.69-4.51l1.2-1.13,.77-.72c1.14-1.06,2.28-2.12,3.43-3.16,.41-.38,.81-.75,1.22-1.12,1.46-1.33,2.93-2.66,4.4-3.98,.41-.37,.82-.74,1.23-1.1,.53-.47,1.05-.94,1.58-1.41,.1,.04,.19,.08,.29,.12l.03,.02c.46,.2,.86,.45,1.16,.76Z"/><path class="cls-7" d="M147.21,129.31c-.18,.91-.36,1.81-.54,2.71-.07,.06-.13,.12-.19,.18-.41,.37-.81,.74-1.22,1.12-1.43,1.32-2.85,2.65-4.26,4-.4,.38-.8,.76-1.2,1.15-1.5,1.44-2.98,2.9-4.45,4.38-.39,.39-.78,.78-1.17,1.17-.51,.52-1.02,1.03-1.53,1.55-1.13,1.16-2.25,2.33-3.37,3.52-.38,.4-.76,.8-1.13,1.21-1.49,1.59-2.96,3.19-4.41,4.81-.37,.41-.74,.83-1.11,1.24-.38,.42-.76,.85-1.13,1.28h-2.19c.71-.82,1.43-1.64,2.16-2.46,.36-.41,.73-.83,1.1-1.24,.64-.72,1.29-1.43,1.93-2.13,.83-.91,1.66-1.81,2.51-2.7,.37-.41,.75-.81,1.13-1.21,1.61-1.71,3.24-3.4,4.9-5.07,.38-.39,.77-.78,1.16-1.17,1.48-1.48,2.97-2.95,4.48-4.41,.4-.38,.79-.77,1.2-1.14,.26-.26,.53-.51,.79-.76,1.15-1.09,2.3-2.17,3.47-3.24,.41-.38,.81-.75,1.22-1.12,.61-.56,1.23-1.12,1.85-1.67Z"/><path class="cls-7" d="M144.2,144.15c-.19,.91-.38,1.82-.57,2.72-.87,.77-1.73,1.56-2.59,2.35-.41,.37-.81,.74-1.21,1.11-1.7,1.58-3.37,3.19-5.01,4.83-.39,.39-.78,.78-1.16,1.18-.42,.42-.83,.85-1.24,1.28h-2.28c.34-.38,.69-.75,1.05-1.12,.45-.47,.9-.94,1.36-1.4,.38-.39,.77-.79,1.17-1.18,1.65-1.65,3.33-3.26,5.04-4.84,.4-.38,.8-.75,1.21-1.12,1.4-1.29,2.82-2.56,4.24-3.81Z"/><path class="cls-7" d="M148.39,123.36c-.02,.11-.05,.22-.07,.33-.11,.57-.22,1.14-.33,1.7-.98-1.12-1.98-2.23-2.99-3.32-.37-.41-.75-.81-1.13-1.21-1.49-1.58-3.01-3.12-4.57-4.64,.45,.08,.89,.17,1.33,.26,.57,.12,1.13,.25,1.69,.4,.94,.95,1.87,1.9,2.78,2.87,.38,.4,.76,.81,1.13,1.21,.73,.79,1.46,1.58,2.17,2.39Z"/><path class="cls-7" d="M146.61,132.34c-.13,.68-.27,1.35-.41,2.03-.31-.35-.63-.7-.95-1.05-.37-.41-.74-.81-1.11-1.22-1.55-1.69-3.13-3.34-4.74-4.97-.38-.39-.77-.79-1.17-1.17-1.6-1.6-3.24-3.17-4.9-4.71-.41-.38-.81-.75-1.22-1.12-.47-.43-.95-.86-1.43-1.29-.84-.75-1.69-1.49-2.54-2.22,.42-.37,.84-.73,1.27-1.08,0,0,.02,.02,.03,.02,.65,.56,1.29,1.12,1.94,1.69,0,0,0,0,.02,.01,.65,.57,1.29,1.15,1.92,1.73,.41,.36,.81,.74,1.22,1.12,1.67,1.53,3.31,3.11,4.92,4.71,.39,.38,.78,.78,1.17,1.17,1.6,1.63,3.18,3.28,4.73,4.97,.37,.41,.74,.81,1.11,1.22,.05,.05,.09,.1,.13,.14Z"/><path class="cls-7" d="M144.73,141.58c-.14,.68-.28,1.36-.42,2.05-1.48-1.75-2.99-3.47-4.52-5.17-.36-.41-.73-.82-1.11-1.23-.96-1.06-1.92-2.11-2.89-3.15-.6-.64-1.2-1.28-1.81-1.91-.38-.4-.76-.8-1.15-1.2-1.54-1.6-3.11-3.18-4.69-4.74-.39-.38-.79-.77-1.18-1.16-1.32-1.29-2.66-2.56-4.01-3.83l-.74-.69c-.16-.14-.31-.29-.47-.43-1.5-1.39-3.01-2.75-4.54-4.1-.07-.06-.13-.12-.2-.17,.14-.01,.27-.02,.41-.02,.64-.04,1.29-.08,1.93-.12,1.22,1.09,2.43,2.18,3.62,3.29,.41,.37,.81,.75,1.21,1.13,1.34,1.25,2.66,2.51,3.97,3.79,.4,.38,.79,.77,1.18,1.16,.03,.02,.06,.05,.09,.08,1.56,1.54,3.1,3.1,4.62,4.68,.38,.4,.77,.79,1.15,1.2,1.59,1.67,3.16,3.35,4.7,5.05,.37,.41,.74,.81,1.11,1.22,.53,.59,1.05,1.18,1.58,1.78,.73,.83,1.45,1.66,2.16,2.49Z"/><path class="cls-7" d="M142.7,151.19c-.15,.68-.3,1.36-.45,2.04-.79-.98-1.59-1.94-2.41-2.89l-1.08-1.25c-1.5-1.72-3.02-3.4-4.58-5.07-.37-.41-.75-.81-1.13-1.21-1.07-1.13-2.15-2.25-3.25-3.35-.55-.55-1.1-1.1-1.65-1.65-.39-.39-.79-.78-1.18-1.17-1.54-1.51-3.09-3-4.66-4.48-.4-.38-.8-.76-1.2-1.13-1.4-1.32-2.81-2.61-4.22-3.91-.41-.38-.81-.75-1.22-1.12-1.05-.95-2.09-1.9-3.14-2.85-.41-.36-.81-.73-1.22-1.09-.41-.37-.82-.74-1.23-1.1-1.13-1.01-2.26-2.03-3.4-3.04,.32-.45,.85-.74,1.44-.93,1.03,.92,2.06,1.84,3.09,2.76,.41,.37,.82,.74,1.23,1.1,1.47,1.32,2.94,2.65,4.4,3.98,.41,.37,.81,.74,1.22,1.12,1.15,1.05,2.3,2.1,3.43,3.16l.77,.72,1.2,1.13c1.58,1.49,3.14,2.99,4.69,4.51,.39,.39,.79,.78,1.17,1.17,1.65,1.64,3.28,3.3,4.88,4.99,.38,.4,.76,.8,1.14,1.2,.98,1.05,1.95,2.11,2.91,3.18,.57,.65,1.15,1.29,1.71,1.94,.36,.42,.72,.84,1.08,1.26,.56,.65,1.11,1.31,1.65,1.96Z"/><path class="cls-7" d="M136.98,157.62h-2.19c-.37-.43-.75-.86-1.13-1.28-.37-.41-.74-.83-1.11-1.24-1.44-1.62-2.92-3.22-4.4-4.81-.38-.41-.75-.81-1.14-1.21-1.11-1.18-2.23-2.35-3.37-3.52-.51-.52-1.01-1.04-1.53-1.55-.38-.39-.77-.79-1.17-1.17-1.47-1.48-2.95-2.94-4.45-4.38-.4-.38-.79-.77-1.2-1.15-1.41-1.34-2.83-2.68-4.26-3.99-.41-.38-.81-.75-1.22-1.12-.05-.04-.09-.09-.14-.13l-.4-1.53-.36-1.38c.67,.6,1.34,1.2,2.01,1.81,.41,.37,.82,.74,1.22,1.12,1.17,1.07,2.32,2.15,3.47,3.24,.26,.25,.53,.5,.79,.75,.4,.38,.8,.76,1.2,1.15,1.51,1.45,3,2.92,4.48,4.4,.39,.39,.78,.78,1.16,1.17,1.65,1.67,3.28,3.36,4.89,5.07,.38,.4,.76,.8,1.14,1.21,.84,.9,1.67,1.8,2.5,2.7,.65,.71,1.29,1.42,1.93,2.13,.37,.41,.74,.83,1.11,1.24,.73,.81,1.45,1.63,2.15,2.46Z"/><path class="cls-7" d="M126.15,157.62h-2.28c-.41-.43-.81-.86-1.24-1.28-.38-.4-.77-.79-1.16-1.18-1.64-1.64-3.31-3.25-5.01-4.83-.4-.37-.8-.74-1.21-1.11-.49-.45-.98-.91-1.48-1.35-.24-.91-.47-1.81-.7-2.71l-.05-.17c1.11,.98,2.21,1.98,3.31,2.98,.41,.37,.81,.74,1.21,1.12,1.7,1.58,3.39,3.19,5.03,4.84,.39,.39,.78,.79,1.17,1.18,.45,.46,.91,.93,1.36,1.4,.35,.37,.7,.74,1.05,1.12Z"/></g><path class="cls-14" d="M154.38,110.53c-.18,1.42-.57,2.8-1.11,4.13-.52,1.28-1.11,2.58-1.9,3.73-.81,1.19-1.85,2.06-3.2,2.59-1.31,.52-2.73,.68-4.12,.82-3.19,.33-6.42,.32-9.62,.34-3.15,.02-6.29-.02-9.44-.12-3.15-.1-6.29-.26-9.43-.48-1.54-.11-3.09-.22-4.63-.37-1.34-.12-2.68-.31-3.89-.94-1.22-.64-2.06-1.75-2.65-2.98-.63-1.32-1.12-2.72-1.43-4.14-.32-1.47-.49-2.99-.47-4.5,.02-1.43,.24-2.86,.98-4.1,.35-.6,1-.6,1.45-.31h47.21c.33,0,.59,.14,.75,.33,.57,.33,.94,.87,1.17,1.48,.54,1.39,.52,3.06,.33,4.52Z"/><path class="cls-11" d="M134,86.98c.09,5.04-1.81,9.88-4.73,13.94-.32,.59-.71,1.15-1.18,1.65-.15,.15-.31,.29-.47,.43-.19,.23-.38,.45-.59,.66-.15,.16-.33,.16-.47,.08-.4,.22-.82,.41-1.28,.54-.59,.18-1.18,.33-1.61,.82-.34,.38-.53,.88-.62,1.38-.42,2.23,1.12,4.33,.9,6.58-.18,1.9-1.65,3.49-3.67,3.15-.94-.16-1.75-.79-2.17-1.64-.49-.99-.27-1.94-.01-2.95,.12-.49,.23-1.05,0-1.52-.31-.6-.92-.44-1.36-.07-.73,.61-1.1,1.61-2.06,1.94-.91,.32-1.82-.2-2.33-.96-.61-.91-.54-2.04-.76-3.07-.25-1.17-1.01-1.97-2.27-1.61-1.09,.32-1.85,1.23-2.79,1.81-.77,.48-1.76,.79-2.67,.5-.86-.26-1.38-1.01-1.49-1.89-.14-1.11,.35-2.08,.75-3.08,.13-.33,.27-.74,.33-1.15-.04-.06-.08-.11-.12-.16-3.43-4.78-5.02-10.89-4.38-16.74,.64-5.87,3.52-11.89,9.12-14.44,2.84-1.3,6.02-1.71,9.12-1.51,3.12,.21,6.24,1.05,8.92,2.69,5.02,3.07,7.77,8.81,7.88,14.6Z"/><path class="cls-13" d="M140.91,56.73c3.08,4.7,5.39,10.54,3.73,16.17-.7,2.37-2.08,4.56-4.1,6.01-1.93,1.38-4.43,1.92-6.77,1.53-1.17-.19-2.31-.65-3.27-1.37-1.12-.84-1.87-2.18-3.13-2.83-2.81-1.46-3.59,2.57-4.45,4.28-.48,.95-1.21,1.91-2.29,2.19-1.2,.31-2.33-.32-3.05-1.25-.85-1.1-1.02-2.47-1.24-3.8-.21-1.27-.53-2.79-1.71-3.53-1.16-.73-2.45,.02-3.55,.5-1.06,.46-2.18,.79-3.3,.33-2.67-1.09-2.86-4.48-2.77-6.94,.07-1.99,.44-3.97,1.06-5.86,.95-3.42,2.97-6.55,5.62-8.96,1.98-1.81,4.28-3.27,6.72-4.36,2.79-1.24,5.86-2.03,8.93-1.69,5.85,.66,10.43,4.83,13.54,9.57Z"/><path class="cls-9" d="M120.46,68.44c-2.46-.18-2.82-3.15-4.13-4.66-2.09-2.41-4.86,1.13-6.85,1.9-2.37,.91-4.46-.94-4.66-3.3-.12-1.39,.37-2.75,.95-3.99,.53-1.13,1.16-2.22,1.89-3.23,.56-.79,1.17-1.53,1.83-2.23,5.04-5.93,13.99-8.31,21.45-6.02,4.45,1.36,8.31,4.33,10.93,8.16,1.31,1.91,2.3,4.04,2.89,6.27,.32,1.23,.64,2.63,.08,3.84-.44,.96-1.43,1.69-2.52,1.5-.96-.17-1.61-.96-2.29-1.58-.38-.36-.81-.72-1.33-.81-.6-.1-1.19,.17-1.64,.55-1.06,.91-1.32,2.29-1.63,3.58-.29,1.18-.66,2.35-1.55,3.22-.74,.73-1.79,1.16-2.82,.83-1.07-.34-1.79-1.31-2.2-2.31-.5-1.23-.58-2.69-1.38-3.79-.68-.94-1.75-1.34-2.76-.69-1.4,.9-2.33,2.92-4.25,2.78Z"/><path class="cls-16" d="M111.42,52.82c-2.03,1.7-3.7,3.83-4.82,6.23-.53,1.13-1.06,2.48-.61,3.73,.38,1.06,1.37,1.78,2.5,1.61,.52-.08,.3-.88-.22-.8-1.21,.18-1.71-1.29-1.59-2.23,.14-1.1,.72-2.16,1.25-3.11,1.05-1.85,2.43-3.49,4.06-4.85,.41-.34-.18-.92-.58-.58Z"/><path class="cls-16" d="M120.34,66.08c-1.36-.79-2.11-2.38-1.9-3.93,.03-.22-.21-.41-.41-.41-.25,0-.38,.19-.41,.41-.24,1.83,.72,3.72,2.31,4.64,.46,.27,.88-.45,.42-.71Z"/><path class="cls-16" d="M132.66,71.37c-.96,.21-1.69-.69-1.97-1.5-.33-.94-.34-1.95-.62-2.89-.48-1.62-1.86-2.88-3.55-3.12-.52-.08-.75,.72-.22,.8,.86,.13,1.63,.53,2.22,1.17,.68,.75,.86,1.72,1.02,2.69,.16,.95,.34,1.93,.95,2.71,.57,.73,1.47,1.14,2.39,.94,.52-.11,.3-.91-.22-.8Z"/><path class="cls-16" d="M143.53,64.84c-1.14,.35-1.87-1.05-2.41-1.79-.63-.87-1.65-1.73-2.81-1.34-.5,.17-.29,.97,.22,.8,1.11-.38,1.85,.94,2.37,1.68,.64,.9,1.65,1.82,2.84,1.45,.51-.16,.29-.96-.22-.8Z"/><path class="cls-8" d="M142.09,116.14c-.78-1.12-1.68-2.89-.51-4.08,.37-.38-.21-.96-.58-.58-.63,.64-.88,1.57-.77,2.45,.12,.97,.6,1.84,1.15,2.63,.13,.18,.36,.27,.57,.15,.18-.11,.28-.38,.15-.57Z"/><path class="cls-10" d="M113.09,71.35c-1.57,.15-3.12,1.09-4.65,.24-1.47-.81-1.94-2.65-1.13-4.1,.26-.47-.45-.88-.71-.42-.72,1.29-.7,2.94,.19,4.14,.87,1.18,2.31,1.72,3.75,1.51,.85-.12,1.66-.45,2.52-.55,.8-.09,1.61,.06,2.32,.45,1.47,.8,2.19,2.41,1.98,4.04-.07,.53,.76,.52,.83,0,.39-2.95-2.11-5.62-5.09-5.33Z"/><path class="cls-10" d="M119.87,80.2c-.08-.04-.17-.09-.24-.15-.02-.01-.03-.03-.05-.04-.04-.03-.07-.06-.11-.09-.07-.06-.14-.13-.2-.2-.01-.02-.03-.03-.04-.05h0s-.05-.08-.08-.12c-.05-.08-.1-.16-.14-.25l-.02-.05h0s-.03-.09-.04-.13c-.03-.09-.06-.18-.07-.27,0-.02,0-.05-.01-.07,0-.02-.01-.1,0-.03,0,.07,0-.01,0-.03,0-.03,0-.06,0-.09-.01-.22-.18-.42-.41-.41-.21,0-.43,.18-.41,.41,.06,.94,.6,1.83,1.44,2.27,.19,.1,.46,.06,.57-.15,.1-.19,.06-.46-.15-.57Z"/><path class="cls-2" d="M119.12,102.74c-.44-1.24-1.4-2.19-2.62-2.66-.61-.23-1.28-.33-1.93-.26-.83,.09-1.57,.48-2.39,.61-1.78,.28-3.31-1.15-5.06-1.24-1.32-.06-2.73,.79-2.75,2.22,0,.53,.82,.53,.83,0,0-.65,.53-1.13,1.12-1.31,.67-.21,1.4-.02,2.04,.2,1.26,.44,2.47,1.14,3.86,.95,1.26-.17,2.35-.86,3.66-.51,1.11,.3,2.06,1.12,2.45,2.22,.18,.5,.98,.28,.8-.22Z"/><path class="cls-2" d="M120.5,113.13c-.57-.2-.6-1.09-.55-1.62,.08-.91,.2-1.82-.4-2.59-.14-.18-.44-.14-.58,0-.17,.17-.14,.41,0,.58,.25,.32,.25,.77,.23,1.16-.02,.43-.1,.86-.09,1.29,.03,.82,.34,1.68,1.17,1.97,.21,.07,.45-.08,.51-.29,.06-.23-.08-.43-.29-.51Z"/><path class="cls-2" d="M114.41,109.13c-.79-1.21-1.16-2.7-.95-4.15,.03-.22-.05-.44-.29-.51-.19-.05-.48,.07-.51,.29-.24,1.67,.11,3.37,1.04,4.78,.29,.44,1.01,.03,.71-.42Z"/><path class="cls-2" d="M103.27,96.78c-2.13-4.36-2.44-9.48-.88-14.07,.17-.51-.63-.72-.8-.22-1.63,4.81-1.26,10.15,.97,14.71,.23,.48,.95,.06,.71-.42Z"/><path class="cls-2" d="M105.1,96.37c-.73-.9-1.07-2.06-1.01-3.2,.01-.22-.2-.41-.41-.41-.23,0-.4,.19-.41,.41-.08,1.37,.39,2.72,1.25,3.79,.14,.17,.44,.15,.58,0,.17-.17,.14-.41,0-.58Z"/><path class="cls-13" d="M120.12,48.3c-.3-.46-.92-.67-1.41-.37-.93,.57-1.82,1.23-2.64,1.95-.19,.17-.3,.48-.3,.73s.11,.56,.3,.73c.2,.18,.46,.32,.73,.3,.28-.01,.52-.11,.73-.3,.25-.22,.5-.42,.76-.63,.47-.36,.96-.69,1.46-1,.22-.14,.4-.36,.48-.62,.07-.25,.04-.58-.1-.8Z"/><path class="cls-13" d="M129.62,51.82c-.4-.91-.98-1.75-1.67-2.47-.18-.19-.47-.3-.73-.3s-.56,.11-.73,.3c-.39,.42-.4,1.04,0,1.46,.16,.17,.32,.36,.47,.54,.35,.47,.64,.98,.88,1.51,.1,.22,.4,.41,.62,.48,.25,.07,.58,.04,.8-.1,.22-.14,.42-.35,.48-.62l.04-.27c0-.19-.05-.36-.14-.52Z"/><path class="cls-13" d="M124.64,55.75c-.36-.91-.81-1.77-1.41-2.55-.06-.12-.15-.22-.27-.29-.1-.09-.22-.15-.35-.19-.25-.07-.58-.04-.8,.1-.22,.14-.42,.35-.48,.62-.06,.25-.06,.58,.1,.8,.48,.64,.89,1.34,1.21,2.07,.1,.25,.22,.46,.47,.6,.22,.13,.55,.18,.8,.1,.25-.08,.49-.24,.62-.48,.12-.23,.21-.54,.1-.8Z"/><path class="cls-13" d="M116.92,55.74c0-.14-.05-.27-.12-.38-.13-.21-.37-.42-.62-.48-.26-.06-.56-.05-.8,.1l-.21,.16c-.11,.11-.19,.24-.24,.39-.23,.53-.52,1.03-.87,1.48-.08,.12-.12,.25-.12,.38-.03,.14-.02,.27,.02,.41,.07,.24,.25,.5,.48,.62,.24,.13,.53,.19,.8,.1l.25-.1c.16-.09,.28-.22,.37-.37,.45-.59,.78-1.23,1.05-1.91,.04-.14,.05-.27,.02-.41Z"/><path class="cls-13" d="M130.54,57.21c-.07-.24-.25-.5-.48-.62-.51-.27-1.11-.12-1.41,.37-.18,.29-.37,.56-.57,.83-.29,.37-.6,.72-.94,1.04-.19,.18-.3,.47-.3,.73s.11,.56,.3,.73c.2,.18,.46,.32,.73,.3,.28-.01,.53-.11,.73-.3,.7-.69,1.32-1.46,1.83-2.29,.14-.22,.17-.55,.1-.8Z"/><path class="cls-13" d="M137.66,55.27c-.5-.8-1.13-1.52-1.87-2.1-.09-.1-.2-.17-.33-.21-.12-.06-.26-.09-.4-.09-.25,0-.56,.11-.73,.3-.18,.2-.32,.46-.3,.73,.01,.25,.09,.57,.3,.73,.46,.36,.86,.77,1.22,1.22,.11,.15,.22,.3,.32,.46,.14,.22,.36,.4,.62,.48,.25,.07,.58,.04,.8-.1,.22-.14,.42-.35,.48-.62,.06-.27,.05-.56-.1-.8Z"/><path class="cls-4" d="M123.11,59.89c-.08-.26-.24-.48-.48-.62-.25-.15-.5-.31-.74-.49-.24-.2-.48-.4-.69-.63-.18-.19-.47-.3-.73-.3s-.56,.11-.73,.3c-.18,.2-.32,.46-.3,.73,.01,.28,.11,.53,.3,.73,.54,.56,1.17,1.05,1.85,1.43,.23,.13,.54,.18,.8,.1,.24-.07,.5-.25,.62-.48,.13-.24,.19-.53,.1-.8Z"/><path class="cls-4" d="M111.77,59.28c-.2-.64-.4-1.28-.6-1.92-.08-.25-.24-.48-.48-.62-.22-.13-.55-.18-.8-.1-.25,.08-.49,.24-.62,.48-.13,.24-.19,.53-.1,.8,.2,.64,.4,1.28,.6,1.92,.08,.25,.24,.48,.48,.62,.22,.13,.55,.18,.8,.1,.25-.08,.49-.24,.62-.48,.13-.24,.19-.53,.1-.8Z"/><path class="cls-4" d="M134.58,49.14c-.14-.22-.35-.42-.62-.48-.76-.16-1.51-.39-2.23-.68-.23-.09-.59-.02-.8,.1-.21,.13-.42,.37-.48,.62-.06,.26-.05,.56,.1,.8l.16,.21c.13,.13,.28,.22,.46,.27,.72,.29,1.47,.52,2.23,.68,.27,.06,.55,.04,.8-.1,.21-.13,.42-.37,.48-.62,.06-.26,.05-.56-.1-.8Z"/><path class="cls-4" d="M135.61,59.05c-.07-.24-.25-.5-.48-.62-.24-.13-.53-.19-.8-.1-.24,.08-.51,.23-.62,.48-.32,.72-.65,1.44-.97,2.16-.08,.12-.12,.25-.12,.38-.03,.14-.02,.27,.02,.41,.07,.24,.25,.5,.48,.62,.24,.13,.53,.19,.8,.1,.24-.08,.51-.23,.62-.48,.32-.72,.65-1.44,.97-2.16,.08-.12,.12-.25,.12-.38,.03-.14,.02-.27-.02-.41Z"/><path class="cls-4" d="M125.76,46.8c-.2-.18-.46-.32-.73-.3-.27,.01-.53,.1-.73,.3-.6,.6-1.17,1.24-1.7,1.9-.1,.09-.17,.2-.21,.33-.06,.12-.09,.26-.09,.4,0,.25,.11,.56,.3,.73,.2,.18,.46,.32,.73,.3,.26-.01,.56-.09,.73-.3,.54-.66,1.1-1.3,1.7-1.9,.19-.19,.3-.46,.3-.73s-.11-.56-.3-.73Z"/><g><path class="cls-14" d="M165.53,63.77c-.36,.59-1.18,.94-1.74,1.3-.75,.49-1.51,.98-2.26,1.47-3.06,2-6.13,4-9.2,5.99-3.04,1.98-6.08,3.96-9.12,5.94-2.72,1.77-5.45,3.8-8.64,4.61-.25,.06-.54-.17-.44-.44,.62-1.76,1.24-3.52,1.86-5.28,1.47-5.77,3.03-11.52,5.03-17.13,1.12-3.14,2.38-6.24,3.83-9.25,.36-.75,.72-1.49,1.12-2.22,.32-.6,.77-.93,1.48-.86,.67,.06,1.35,.3,1.99,.5,.69,.21,1.38,.45,2.05,.72,5.22,2.08,9.87,5.78,12.9,10.54,.42,.66,.8,1.36,1.05,2.11,.2,.6,.45,1.41,.1,2Z"/><path class="cls-7" d="M142.38,77.74c-.55-3.24-1.19-6.47-1.91-9.68-.15-.68-1.2-.39-1.04,.29,.72,3.21,1.36,6.44,1.91,9.68,.12,.69,1.16,.39,1.04-.29Z"/><path class="cls-7" d="M146.59,74.93c-1.01-5.63-2.15-11.24-3.41-16.81-.15-.68-1.2-.39-1.04,.29,1.27,5.58,2.41,11.18,3.41,16.81,.12,.68,1.17,.39,1.04-.29Z"/><path class="cls-7" d="M151.33,71.18c-1.51-7.02-2.88-14.07-4.13-21.15-.12-.69-1.16-.39-1.04,.29,1.25,7.07,2.62,14.12,4.13,21.15,.15,.68,1.19,.39,1.04-.29Z"/><path class="cls-7" d="M156.52,67.84c-.88-5.85-1.93-11.67-3.15-17.46-.14-.68-1.19-.39-1.04,.29,1.22,5.79,2.27,11.61,3.15,17.46,.1,.69,1.15,.39,1.04-.29Z"/><path class="cls-7" d="M162.67,65.39c-.77-3.26-1.54-6.51-2.31-9.77-.16-.68-1.2-.39-1.04,.29,.77,3.26,1.54,6.51,2.31,9.77,.16,.68,1.2,.39,1.04-.29Z"/><path class="cls-7" d="M149.71,72.81c-4.31,.85-8.58,1.85-12.82,3.01-.67,.18-.39,1.23,.29,1.04,4.23-1.16,8.51-2.16,12.82-3.01,.68-.13,.39-1.18-.29-1.04Z"/><path class="cls-7" d="M164.9,62.83c-6.77,1.5-13.62,2.63-20.43,3.96-1.92,.38-3.84,.77-5.75,1.19-.68,.15-.39,1.19,.29,1.04,6.77-1.5,13.62-2.62,20.43-3.96,1.92-.38,3.84-.77,5.75-1.19,.68-.15,.39-1.19-.29-1.04Z"/><path class="cls-7" d="M160.64,56.22c-.67,.48-1.64,.6-2.42,.81-.87,.23-1.73,.46-2.6,.68-1.71,.44-3.42,.87-5.13,1.32-3.42,.92-6.81,1.95-10.07,3.35-.64,.27-.09,1.21,.55,.93,3.28-1.4,6.7-2.41,10.14-3.33,1.71-.45,3.42-.88,5.13-1.32,.87-.22,1.74-.45,2.6-.68,.78-.21,1.68-.35,2.36-.83,.56-.4,.02-1.34-.55-.93Z"/><path class="cls-7" d="M155.39,51.26c-4.31,1.36-8.54,2.93-12.69,4.71-.64,.27-.09,1.21,.55,.93,4.06-1.74,8.21-3.28,12.43-4.61,.66-.21,.38-1.25-.29-1.04Z"/><path class="cls-7" d="M165.43,62.41c-3.76,2.99-7.88,5.5-11.94,8.06-4.1,2.59-8.22,5.15-12.46,7.52-2.39,1.33-4.82,2.6-7.29,3.78-.44,.21-.55,.84-.32,1.23,.26,.45,.79,.53,1.23,.32,4.43-2.11,8.71-4.52,12.91-7.05,4.17-2.52,8.29-5.12,12.38-7.77,2.32-1.51,4.6-3.09,6.77-4.81,.38-.3-.89-1.58-1.28-1.28Z"/></g><path class="cls-4" d="M155.79,100.66c-.65,1.15-1.8,2.26-1.8,3.66,0,1.27,.74,2.5,.06,3.72-.62,1.13-1.95,1.05-2.97,.56-.67-.32-1.25-.87-1.99-1.02-.6-.12-1.17,.13-1.59,.55-1.07,1.07-.91,2.72-.84,4.11,.07,1.32,.08,2.77-.71,3.91-1.34,1.91-4.23,2.13-5.75,.33-.76-.89-1.06-2.03-.84-3.18,.26-1.34,1.19-2.47,1.32-3.84,.06-.61-.05-1.26-.52-1.69-.48-.43-1.18-.52-1.79-.56-1.57-.11-3.14-.14-4.71-.2-1.52-.06-3.04-.09-4.55-.21-1.26-.1-2.52-.29-3.67-.84-2.31-1.1-3.24-3.55-3.56-5.94-.34-2.56-.24-5.21,.21-7.76,.89-5.05,3.43-9.88,7.69-12.86,.78-.54,1.6-1.02,2.46-1.43,1.01-.53,2.08-.97,3.19-1.27,5.08-1.37,10.71-.18,14.85,3.05,3.99,3.11,6.55,7.92,7.01,12.94,.25,2.7-.14,5.55-1.49,7.94Z"/><path class="cls-9" d="M157.59,89.8c-.08,1.99-.95,4.5-3.21,4.82-.93,.13-1.71-.27-2.37-.89-.57-.53-1.1-1.36-1.88-1.6-1.2-.35-1.89,1.09-2.29,1.95-.45,.99-.98,1.9-1.98,2.43-1.78,.94-4.07,.28-5.02-1.52-.53-.99-.55-2.13-.86-3.18-.26-.87-.96-2.01-2.03-1.8-.79,.15-1.39,.91-1.99,1.39-.62,.48-1.33,.83-2.13,.69-.79-.14-1.4-.69-1.98-1.21-.57-.52-1.24-1.18-2.08-1.1-.78,.07-1.41,.69-1.96,1.18-.59,.52-1.19,1.06-1.93,1.34-1.79,.67-3.47-.87-3.74-2.6-.33-2.15,1.03-4.36,2.22-6.05,.62-.88,1.32-1.7,2.07-2.47,1.74-2.07,3.94-3.77,6.41-4.86,4.17-1.85,9.03-2.12,13.34-.6,3.93,1.38,7.36,4.12,9.53,7.68,1.17,1.91,1.99,4.14,1.91,6.41Z"/><path class="cls-16" d="M132.35,78.71c-4.09,1.61-7.25,5.19-8.28,9.48-.12,.52,.67,.74,.8,.22,.95-3.98,3.88-7.4,7.7-8.9,.49-.19,.28-.99-.22-.8Z"/><path class="cls-16" d="M128.24,85.1c-.17-.17-.42-.15-.58,0-.96,.84-1.67,1.94-2.06,3.15-.07,.21,.08,.45,.29,.51,.22,.06,.44-.08,.51-.29,.35-1.07,.99-2.03,1.85-2.79,.17-.15,.15-.43,0-.58Z"/><path class="cls-8" d="M126.13,103.52c-2.12-2.47-2.87-5.95-1.97-9.08,.15-.51-.65-.73-.8-.22-.98,3.42-.13,7.19,2.18,9.88,.35,.4,.93-.18,.58-.58Z"/><path class="cls-8" d="M127.76,103.04c-.16-.15-.32-.31-.45-.48l-.05-.06h0v-.02s-.07-.08-.1-.12c-.06-.09-.13-.19-.18-.29-.05-.09-.11-.19-.15-.28-.03-.05-.05-.1-.07-.15l-.02-.05v-.02c-.09-.21-.16-.43-.21-.65-.05-.21-.3-.36-.51-.29-.22,.07-.34,.28-.29,.51,.22,.95,.74,1.84,1.46,2.5,.16,.15,.43,.17,.58,0,.15-.16,.17-.43,0-.58Z"/><path class="cls-13" d="M138.92,78.42c-.42-.39-1.04-.4-1.46,0-.21,.19-.43,.38-.65,.55-.47,.35-.97,.67-1.49,.93-.22,.11-.41,.38-.48,.62-.07,.25-.04,.58,.1,.8,.14,.22,.35,.42,.62,.48,.28,.06,.54,.03,.8-.1,.93-.47,1.8-1.09,2.56-1.81,.39-.37,.4-1.09,0-1.46Z"/><path class="cls-13" d="M149.83,81.12c-.65-.65-1.3-1.31-1.95-1.96-.19-.19-.47-.3-.73-.3s-.56,.11-.73,.3c-.18,.2-.32,.46-.3,.73,.01,.27,.11,.53,.3,.73,.65,.65,1.3,1.31,1.95,1.96,.19,.19,.47,.3,.73,.3s.56-.11,.73-.3c.18-.2,.32-.46,.3-.73-.01-.27-.11-.53-.3-.73Z"/><path class="cls-4" d="M134.19,84.02c-.41-.81-.97-1.56-1.62-2.2-.19-.19-.46-.3-.73-.3s-.56,.11-.73,.3c-.18,.2-.32,.46-.3,.73,.01,.27,.1,.54,.3,.73,.21,.21,.41,.43,.59,.66,.27,.35,.5,.73,.71,1.12,.11,.22,.38,.41,.62,.48,.25,.07,.58,.04,.8-.1,.22-.14,.42-.35,.48-.62,.06-.28,.03-.54-.1-.8Z"/><path class="cls-4" d="M143.4,82.97c-.14-.22-.35-.42-.62-.48l-.27-.04c-.16,0-.3,.04-.44,.11-.89,.37-1.81,.67-2.76,.89-.53,.12-.89,.75-.72,1.27,.18,.55,.71,.85,1.27,.72,1.09-.26,2.14-.63,3.17-1.07,.22-.1,.41-.4,.48-.62,.07-.25,.04-.58-.1-.8Z"/><path class="cls-4" d="M144.16,78.65c-.53-.93-1.23-1.77-2.06-2.45-.22-.18-.44-.3-.73-.3-.25,0-.56,.11-.73,.3-.18,.2-.32,.46-.3,.73,.01,.26,.09,.56,.3,.73,.45,.37,.85,.79,1.22,1.24,.19,.25,.36,.52,.52,.79,.13,.22,.37,.41,.62,.48,.25,.07,.58,.04,.8-.1,.47-.31,.66-.91,.37-1.41Z"/><path class="cls-7" d="M147.4,120.14h-39.09c-1.33,0-1.33,2.07,0,2.07h39.09c1.33,0,1.33-2.07,0-2.07Z"/></g><g><path class="cls-11" d="M247.39,123.13c-.23,1.08-.46,2.16-.68,3.25h0c-.93,4.5-1.81,9-2.63,13.51h0c-.53,2.91-1.04,5.82-1.53,8.74-.35,2.06-.68,4.12-1,6.18-2.31,.72-4.66,1.3-7.04,1.75-2.73,.51-5.49,.83-8.27,.97-3.28,.17-6.57,.09-9.84-.25-2.07-.22-4.13-.53-6.17-.95-2.28-.47-4.52-1.06-6.73-1.78,0,0-.02,0-.03,0-.28-1.96-.56-3.92-.84-5.88-.36-2.53-.72-5.06-1.08-7.59-.28-1.97-.56-3.94-.84-5.9-.58-4.09-1.16-8.19-1.74-12.28,4.16,.78,8.43,1.14,12.72,1.33,2.17,.1,4.34,.16,6.5,.2,1.72,.04,3.42,.07,5.12,.11,1.04,.02,2.09,.04,3.13,.04,2.26,0,4.51-.04,6.76-.15,3.12-.14,6.23-.38,9.33-.7,1.62-.17,3.24-.37,4.86-.59Z"/><path class="cls-4" d="M218.19,124.41c-5.3,5.79-10.85,11.34-16.64,16.65-.28-1.97-.56-3.94-.84-5.9,3.76-3.54,7.43-7.19,10.98-10.95,2.17,.1,4.34,.16,6.5,.2Z"/><path class="cls-4" d="M233.2,124.42c-9.45,10.47-19.36,20.52-29.7,30.13,0,0-.02,0-.03,0-.28-1.96-.56-3.92-.84-5.88,8.21-7.75,16.16-15.78,23.81-24.09,2.26,0,4.51-.04,6.76-.15Z"/><path class="cls-4" d="M244.08,139.9c-.53,2.91-1.04,5.82-1.53,8.73-2.62,2.7-5.31,5.35-8.04,7.93-2.73,.51-5.49,.83-8.27,.97,6.22-5.6,12.17-11.49,17.84-17.64Z"/><path class="cls-4" d="M247.39,123.13c-.23,1.08-.46,2.16-.68,3.25h0c-9.64,10.75-19.75,21.06-30.3,30.9-2.07-.22-4.13-.53-6.17-.95,11.27-10.36,22.05-21.24,32.3-32.61,1.62-.17,3.24-.37,4.86-.59Z"/><path class="cls-11" d="M248.34,123c-.32,.04-.63,.09-.95,.13-7.98,1.08-16.01,1.59-24.08,1.39-8.04-.21-16.41-.15-24.34-1.64-.19-.03-.37-.07-.55-.1-3.09-.61-1.78-5.33,1.3-4.72,7.64,1.51,15.82,1.37,23.59,1.57,7.93,.2,15.87-.24,23.72-1.35,3.09-.43,4.41,4.28,1.3,4.72Z"/><path class="cls-5" d="M249.71,122.39c-.52,1.32-1.67,2.33-3.05,2.69-1.48,.4-2.84-.07-3.92-1.12-.63-.62-1.18-1.38-2.02-1.74-.81-.35-1.44,0-2.02,.58-.86,.89-1.7,2.04-3.1,1.78-1.65-.32-2.18-2.11-3.02-3.31-.49-.71-1.22-1.18-2.1-.88-.81,.28-1.41,1.01-1.65,1.83-.56,1.89,.25,3.88,.3,5.79,.04,1.65-.51,3.22-1.89,4.21-1.28,.92-2.94,1.06-4.36,.39-1.55-.73-2.38-2.21-2.58-3.87-.2-1.7,.19-3.46-.39-5.12-.23-.68-.65-1.34-1.31-1.66-.94-.46-2.02-.13-2.92,.26-1.53,.66-3.03,1.68-4.78,1.47-.74-.09-1.41-.42-1.9-.99-.53-.64-.84-1.58-1.68-1.88-1.64-.57-3.4,1.01-4.82,1.61-1.39,.58-3.12,.69-4.1-.68-.83-1.15-.66-2.78-.15-4.02,.03-.08,.07-.17,.11-.25,.75-1.64,.82-3.5,.34-5.24-1.32-4.77-.61-10.03,1.64-14.46,2.64-5.18,7.44-8.95,12.77-11.09,5.83-2.34,12.7-2.98,18.75-1.15,5.51,1.67,10.21,5.69,12.68,10.9,2.42,5.1,2.56,11.06,.54,16.3-.23,.61,.05,1.29,.65,1.58,0,0,0,0,0,0,2.9,1.41,5.29,4.74,3.98,8.06Z"/><path class="cls-13" d="M246.84,95.68c-.57,1.33-1.81,2.2-3.24,2.39-1.53,.21-2.88-.41-3.91-1.53-1.07-1.17-2.4-3.2-4.19-1.97-1.41,.98-1.85,2.87-3.36,3.75-1.35,.78-2.77,.45-3.61-.84-.36-.54-.63-1.32-1.25-1.61-.71-.33-1.5,.19-1.92,.75-1.14,1.52-.16,3.87-.05,5.58,.1,1.7-.2,3.52-1.21,4.93-.87,1.21-2.18,2.11-3.7,2.21-1.39,.09-2.83-.63-3.57-1.81-.94-1.51-.32-3.24,.44-4.68,.45-.86,.99-1.73,1.11-2.71,.09-.76-.18-1.7-.92-2.08-.77-.4-1.57,.29-2.33,.42-.68,.12-1.28-.11-1.8-.54-.57-.47-.96-1.14-1.59-1.54-.77-.49-1.71-.33-2.53-.02-1.65,.64-2.9,2.02-4.62,2.52-1.51,.44-3.02-.06-3.93-1.35-1.38-1.94-.84-4.01,.13-5.96,.71-1.42,.91-3.04,.57-4.59-1-4.73-.52-9.75,1.36-14.23,2.24-5.34,6.47-9.57,11.77-11.87,5.22-2.27,11.25-2.74,16.68-.93,5.43,1.82,10.25,5.8,12.61,11.08,2.05,4.59,2.13,10.03,.08,14.61-.31,.7-.44,1.47-.29,2.22,0,.03,0,.05,.01,.08,.2,.93,.75,1.74,1.52,2.29,.55,.4,1.06,.82,1.44,1.41,.77,1.17,.84,2.75,.29,4.02Z"/><path class="cls-9" d="M246.39,72.77c.55,1.57,1.26,3.61,.13,5.09-.54,.7-1.31,.92-2.17,.93-.51,0-1.09-.07-1.54,.21-.35,.22-.59,.6-.86,.9-.61,.7-1.41,.98-2.19,.91-.25,.02-.52,.02-.8-.02-1.19-.18-1.94-1.04-2.43-2.08-.42-.88-.74-2.25-1.77-2.6-1.53-.52-2.59,1.27-2.93,2.46-.39,1.37-.47,2.83-1.17,4.1-1.14,2.06-3.83,2.48-5.6,.93-1.03-.91-1.15-2.23-1.16-3.52-.02-1.24-.25-3.45-2.08-2.95-1.47,.4-2.34,1.94-3.73,2.54-1.09,.47-2.27,.24-3.01-.7-.66-.83-.88-1.9-1.43-2.8-.77-1.23-2.21-1.17-3.35-.47-1.3,.78-1.97,2.26-2.78,3.47-.75,1.14-1.68,2.17-2.99,2.67-1.22,.46-2.56,.22-3.47-.73-.99-1.03-1.25-2.48-1.16-3.86,.21-3.14,1.3-6.26,2.97-9.01,4.55-9.82,18.07-13.04,27.92-10.37,3.07,.83,5.9,2.34,8.17,4.45,3.37,2.71,5.98,6.34,7.43,10.48Z"/><path class="cls-11" d="M242.74,53.89c1.31,2.69,2.02,6.23,.82,9.08-.49,1.17-1.38,2.19-2.55,2.72-1.24,.55-2.56,.18-3.83,.52-1.35,.36-1.41,1.77-1.59,2.92-.17,1.12-.52,2.23-1.56,2.83-2.74,1.59-5.17-1.17-7.25-2.54-.67-.44-1.42-.83-2.24-.88-.8-.05-1.58,.22-2.29,.54-1.3,.6-2.5,1.41-3.94,1.63-1.43,.22-2.58-.32-3.58-1.33-.95-.96-2.13-2.48-3.6-1.49-1.05,.72-1.73,1.7-3.06,1.93-1.11,.2-2.25-.05-3.22-.6-2.39-1.36-3.05-4.23-2.51-6.77,.54-2.58,2.24-4.67,4.01-6.57,0,0-.02-.01-.02-.03-1.24-2.38-1.35-5.25-.19-7.69,.96-2.02,2.76-3.57,4.86-4.32-.66-1.3-.74-2.87-.26-4.25,.49-1.43,1.51-2.54,2.89-3.16,1.5-.68,3.2-.81,4.66-1.57,1.58-.82,2.45-2.57,1.94-4.31-.49-1.69-2.26-2.66-3.96-2.46-.55,.06-.58-.66-.25-.91,1.5-1.15,3.33-1.77,5.2-1.88,3.3-.2,6.53,1.31,8.35,4.1,1.61,2.47,2.01,5.6,1.09,8.38,2.18,.2,4.22,1.32,5.52,3.1,1.44,1.98,1.75,4.66,.93,6.94,2.42,1.4,4.4,3.52,5.62,6.04Z"/><path class="cls-2" d="M229.95,37.61c-2.22,1.98-5.14,2.81-7.99,3.43-3.37,.73-6.76,1.37-10.15,2.06-.62,.12-.36,1.07,.26,.94,3.51-.71,7.04-1.36,10.54-2.14,2.9-.65,5.78-1.59,8.04-3.6,.47-.42-.22-1.11-.69-.69Z"/><path class="cls-2" d="M236.26,47.5c-7.07,4.38-15.78,3.54-23.57,5.54-2.2,.57-4.34,1.37-6.31,2.52-.54,.32-.05,1.16,.49,.85,7.2-4.19,15.91-3.28,23.72-5.44,2.16-.6,4.26-1.44,6.16-2.62,.53-.33,.04-1.18-.49-.85Z"/><path class="cls-2" d="M224.39,31.87c-.69-2.79-3.18-4.98-6-5.39-.62-.09-.88,.85-.26,.94,2.45,.35,4.61,2.13,5.27,4.54,.66,2.39-.27,5.11-2.22,6.63-.49,.38,0,1.23,.49,.85,2.27-1.75,3.41-4.75,2.72-7.56Z"/><path class="cls-2" d="M209.67,65.98c-.07-.24-.35-.43-.6-.34-.9,.32-1.9,.25-2.72-.25-.74-.45-1.24-1.19-1.43-2.03-.14-.61-1.08-.35-.94,.26,.24,1.08,.93,2.04,1.88,2.62,1.03,.63,2.34,.75,3.48,.35,.25-.09,.42-.33,.34-.6Z"/><path class="cls-2" d="M230.92,68.92c-1.73,.25-3.03-1.39-4.22-2.37-1.2-.98-2.5-1.48-4.07-1.26-1.68,.24-3.15,1.17-4.8,1.53-1.43,.31-3.99-.15-3.66-2.17,.1-.62-.84-.88-.94-.26-.28,1.68,.98,3.12,2.59,3.44,1.91,.38,3.65-.55,5.4-1.17,.96-.34,2-.61,3.01-.38,.93,.21,1.67,.84,2.35,1.46,1.31,1.17,2.71,2.4,4.59,2.12,.62-.09,.36-1.04-.26-.94Z"/><path class="cls-2" d="M230.36,37.93c-2.71,9.1-13.74,8.48-20.36,13.04-1.72,1.18-3.2,2.7-4.12,4.59-.27,.56,.57,1.06,.85,.49,1.84-3.8,5.81-5.68,9.6-6.99,3.92-1.36,8.12-2.41,11.33-5.19,1.74-1.51,2.98-3.48,3.64-5.68,.18-.61-.76-.86-.94-.26Z"/><path class="cls-2" d="M236.67,48.49c-2.34,3.98-6.15,7.03-10.55,8.44-5.25,1.69-10.85,.22-16.13,1.69-2.48,.69-4.8,2.11-6.17,4.35-.33,.54,.52,1.03,.85,.49,2.99-4.88,9.48-4.53,14.45-4.6,2.55-.03,5.09-.25,7.52-1.07,2.11-.71,4.09-1.77,5.85-3.13,2.02-1.55,3.73-3.47,5.02-5.67,.32-.54-.53-1.04-.85-.49Z"/><path class="cls-10" d="M229.19,91.68c-1.08-1.16-2.79-1.11-4.19-.67-1.89,.6-3.52,1.86-5.55,1-.81-.34-1.57-.8-2.45-.93-.96-.14-1.87,.18-2.79,.4-2.18,.52-3.92-.83-5.87-1.56-1.72-.64-3.83-.6-4.97,1.03-.36,.52,.49,1.01,.85,.49,1.08-1.54,3.25-.89,4.64-.25,1.55,.71,3.11,1.6,4.88,1.37,.9-.12,1.77-.52,2.69-.54,.91-.02,1.7,.47,2.5,.82,.73,.32,1.47,.53,2.28,.47,.86-.07,1.66-.37,2.44-.7,1.42-.6,3.56-1.64,4.86-.25,.43,.46,1.12-.23,.69-.69Z"/><path class="cls-10" d="M243.54,88.83c-.84-.36-1.8-.34-2.56,.19-.35,.25-.6,.6-1.07,.5-.46-.1-.86-.37-1.31-.47-1.59-.36-3.22,.56-3.81,2.06-.23,.59,.72,.84,.94,.26,.22-.56,.71-1.01,1.26-1.24,.65-.27,1.28-.21,1.91,.05,.73,.3,1.46,.53,2.15,.01,.29-.21,.53-.47,.89-.58,.36-.11,.75-.1,1.1,.05,.57,.25,1.07-.59,.49-.85Z"/><path class="cls-10" d="M202.87,96.77c-1.12-.6-1.59-1.99-.95-3.15,.3-.55-.54-1.05-.85-.49-.43,.79-.56,1.75-.27,2.61,.26,.8,.83,1.48,1.57,1.88,.56,.3,1.05-.55,.49-.85Z"/><path class="cls-10" d="M220.37,101.88c.77-1.35,1.24-3.33-.17-4.45-.49-.39-1.19,.3-.69,.69,1.64,1.3-.19,3.5-.89,4.78-.78,1.43-1.08,3.46,.52,4.47,.54,.34,1.03-.51,.49-.85-.69-.43-.8-1.34-.61-2.07,.25-.95,.87-1.74,1.35-2.58Z"/><path class="cls-9" d="M219.84,116.42c-.41-1.48-1.82-2.36-3.29-2.53-2.12-.24-4.06,.85-6.14,.94-2.08,.09-3.53-1.48-5.47-1.88-1.44-.3-3.07,.21-3.55,1.72-.19,.6,.75,.86,.94,.26,.54-1.67,2.7-1.04,3.81-.48,1.39,.7,2.65,1.43,4.27,1.37,1.7-.07,3.28-.81,4.97-.95,1.39-.12,3.1,.31,3.52,1.82,.17,.61,1.11,.35,.94-.26Z"/><path class="cls-9" d="M242.05,114.44c-1-.68-2.23-.91-3.41-.66-.61,.13-1.13,.43-1.65,.75-.65,.39-1.13,.42-1.77,0-.94-.61-1.71-1.21-2.9-1.11-1.08,.09-2.03,.65-2.62,1.55-.35,.53,.5,1.02,.85,.49,.52-.8,1.53-1.22,2.48-1.05,.98,.18,1.6,1.1,2.55,1.36,1.09,.3,1.8-.47,2.72-.87,1.08-.46,2.31-.29,3.27,.37,.52,.36,1.01-.49,.49-.85Z"/><path class="cls-9" d="M202.35,110.63c-1.84-3.03-1.91-6.93-.16-10.02,.31-.55-.53-1.04-.85-.49-1.92,3.38-1.86,7.68,.16,11.01,.33,.54,1.17,.05,.85-.49Z"/><path class="cls-9" d="M204.61,109.83s-.08-.1-.12-.15l-.02-.03s-.03-.04-.05-.07c-.07-.1-.14-.21-.21-.32-.06-.11-.12-.22-.18-.34l-.03-.06-.02-.04c-.02-.06-.05-.12-.07-.18-.18-.52-.22-.87-.19-1.43,.02-.26-.24-.5-.49-.49-.28,.01-.47,.22-.49,.49-.08,1.2,.36,2.4,1.16,3.3,.17,.19,.52,.19,.69,0,.19-.2,.18-.49,0-.69Z"/><path class="cls-9" d="M223.25,130.67c-1.01-1.26-1.27-3.02-.77-4.54,.2-.6-.75-.86-.94-.26-.62,1.87-.2,3.96,1.02,5.49,.16,.21,.52,.17,.69,0,.2-.2,.17-.48,0-.69Z"/><g><path class="cls-9" d="M236.25,122.38c-.1-.05-.2-.1-.3-.17-.02-.02-.04-.03-.07-.05-.04-.04-.08-.07-.13-.11-.04-.04-.08-.08-.12-.12-.02-.02-.05-.06-.08-.1,0,0,0,0-.03-.03h0s-.03-.05-.05-.07c-.03-.05-.06-.1-.09-.14-.03-.05-.06-.1-.08-.15-.01-.02-.02-.04-.03-.06h0c-.04-.11-.07-.21-.1-.32-.01-.05-.02-.11-.03-.16h0s0-.01,0-.02v-.02s0-.02,0-.03c0-.12,0-.24,0-.36,.02-.26-.24-.5-.49-.49-.28,.01-.47,.22-.49,.49-.09,1.12,.58,2.28,1.59,2.76,.23,.11,.54,.07,.67-.18,.12-.22,.07-.55-.18-.67Z"/><path class="cls-9" d="M235.15,120.9h0s0-.05,0-.04v.04Z"/><path class="cls-9" d="M235.53,121.81s.02,.02,.03,.03c0,0-.01-.02-.03-.03h0Z"/></g><path class="cls-9" d="M200.48,120.87s-.05-.05-.07-.08l-.02-.03s0,0-.01-.02c-.04-.06-.09-.13-.13-.19-.03-.06-.07-.12-.1-.18,0,0-.03-.07-.04-.08l-.02-.06c-.05-.15-.1-.29-.13-.45,0-.03-.01-.07-.02-.1,0-.01,0-.05,0-.06,0-.07-.01-.14-.02-.22,0-.15,0-.29,.02-.44v-.05s0,.04,0,0c0-.03,.01-.07,.02-.1,.02-.08,.03-.15,.06-.23,.02-.07,.05-.15,.07-.22l.02-.06,.03-.06c.07-.15,.16-.29,.25-.42,.16-.21,.04-.55-.18-.67-.25-.15-.51-.04-.67,.18-.92,1.25-.77,3.08,.24,4.23,.17,.2,.51,.18,.69,0,.2-.2,.17-.49,0-.69Z"/><path class="cls-2" d="M240.84,71.06c-.07-.22-.17-.45-.3-.65-.09-.13-.19-.26-.3-.37-.06-.06-.13-.11-.19-.16-.07-.06-.14-.11-.22-.15-.3-.15-.6-.22-.93-.17-.09,.01-.18,.02-.27,.05-.13,.04-.26,.1-.39,.17-.21,.1-.41,.26-.58,.42-.06,.06-.12,.12-.17,.19-.11,.14-.23,.28-.31,.43-.09,.16-.15,.33-.22,.49-.01,.03-.02,.06-.02,.09-.03,.04-.06,.08-.09,.13-.05,.07-.09,.13-.13,.2-.11,.22-.18,.41-.21,.65-.01,.1-.03,.17-.02,.26,.01,.11,.02,.25,.05,.36,.02,.06,.06,.15,.07,.18,.08,.2,.2,.39,.37,.53,.26,.21,.53,.37,.86,.46,.16,.04,.33,.06,.5,.07,.07,0,.14,0,.2,0,.46-.03,.96-.15,1.33-.43,.13-.1,.27-.19,.38-.31,.11-.12,.21-.25,.3-.38,.14-.19,.23-.43,.29-.65,.03-.11,.04-.22,.06-.34,.02-.12,.04-.24,.03-.37,0-.23-.04-.48-.11-.71Z"/><path class="cls-2" d="M243.18,74.66c-.06-.21-.16-.39-.31-.54l-.25-.19c-.19-.11-.4-.17-.62-.17-.06,0-.13,0-.19,0-.17,0-.33,.03-.47,.11-.15,.05-.28,.13-.39,.25-.12,.11-.2,.24-.25,.39-.08,.15-.11,.3-.11,.47l.04,.33c.06,.21,.16,.39,.31,.54l.25,.19c.19,.11,.4,.17,.62,.17,.06,0,.13,0,.19,0,.17,0,.33-.03,.47-.11,.15-.05,.28-.13,.39-.25,.12-.11,.2-.24,.25-.39,.08-.15,.11-.3,.11-.47l-.04-.33Z"/><path class="cls-2" d="M242.64,68.31c-.05-.15-.13-.28-.25-.39-.11-.12-.24-.2-.39-.25-.15-.08-.3-.11-.47-.11l-.33,.04c-.21,.06-.39,.16-.54,.31l-.19,.25c-.11,.19-.17,.4-.17,.62v.07c0,.17,.03,.33,.11,.47,.05,.15,.13,.28,.25,.39,.11,.12,.24,.2,.39,.25,.15,.08,.3,.11,.47,.11l.33-.04c.21-.06,.39-.16,.54-.31l.19-.25c.11-.19,.17-.4,.17-.62v-.07c0-.17-.03-.33-.11-.47Z"/><path class="cls-2" d="M230.71,74.17c-.11-.48-.43-.86-.83-1.12-.3-.2-.75-.32-1.1-.28-.31,.03-.56,.08-.84,.24-.26,.15-.45,.35-.61,.6-.06,.1-.1,.2-.12,.31-.06,.06-.12,.12-.17,.19-.13,.16-.28,.33-.38,.51-.15,.27-.24,.57-.24,.88,0,.39,.17,.79,.46,1.05,.22,.19,.35,.26,.62,.36,.14,.05,.33,.06,.46,.08,.31,.03,.65-.02,.95-.08,.2-.05,.39-.13,.58-.22,.2-.09,.36-.22,.53-.36,.31-.26,.5-.61,.64-.98,.14-.36,.13-.8,.04-1.17Z"/><path class="cls-2" d="M225.68,72.5s0-.04-.02-.07v-.03c-.05-.11-.1-.21-.15-.32-.02-.04-.04-.08-.07-.12-.08-.14-.18-.26-.32-.34-.12-.11-.26-.18-.42-.22-.02,0-.04,0-.06-.01l-.11-.05c-.22-.06-.43-.06-.65,0l-.29,.12c-.18,.11-.33,.26-.44,.44-.05,.12-.11,.24-.15,.36-.01,.03-.02,.06-.03,.09-.03,.13-.05,.29-.06,.4,0,.03,0,.06,0,.09,0,.06,.02,.27,.06,.38l.06,.15c.02,.05,.04,.1,.06,.15h0s.01,.03,.02,.05c.06,.09,.13,.18,.21,.27l.02,.02s.1,.08,.13,.1c.04,.03,.09,.07,.13,.1,.01,0,.02,.01,.03,.02,.1,.05,.22,.11,.34,.14,.29,.06,.41,.06,.7,0,.12-.03,.23-.08,.34-.14,.05-.03,.12-.09,.14-.11,.04-.03,.1-.07,.14-.11,.08-.08,.16-.18,.21-.28,.02-.05,.07-.16,.06-.15,.01-.03,.05-.1,.07-.16v-.03c.03-.12,.06-.25,.05-.37,0-.12-.03-.26-.05-.37Z"/><path class="cls-2" d="M221.64,75.07c-.07-.4-.27-.77-.54-1.07-.13-.15-.3-.28-.47-.37-.31-.16-.5-.2-.84-.24-.46-.05-1.01,.16-1.32,.51-.02,.02-.04,.05-.06,.08-.02,.02-.05,.04-.07,.06l-.19,.25c-.07,.11-.11,.23-.13,.36h0c-.07,.13-.15,.25-.2,.37-.15,.32-.2,.49-.24,.84-.02,.2,0,.41,.07,.6,.16,.47,.46,.88,.9,1.13,.36,.21,.8,.31,1.22,.3,.4-.01,.84-.09,1.18-.32,.24-.16,.35-.28,.52-.51,.08-.12,.13-.26,.18-.39,.07-.2,.09-.41,.09-.62,0-.32-.03-.65-.08-.97Z"/><path class="cls-2" d="M212.92,70.34c-.09-.27-.17-.4-.35-.61-.09-.1-.2-.19-.32-.24-.28-.14-.38-.16-.7-.19-.01,0-.03,0-.04,0-.12,0-.25,.02-.37,.05-.25,.07-.42,.18-.61,.35-.05,.05-.1,.1-.13,.15-.01,.01-.03,.02-.04,.03-.08,.09-.15,.19-.22,.29-.01,.02-.02,.04-.03,.06-.07,.13-.13,.26-.17,.4,0,.02-.01,.04-.02,.06-.02,.12-.04,.24-.05,.37-.01,.15,.02,.32,.04,.45,.04,.22,.19,.46,.34,.61,.08,.09,.18,.16,.28,.22,.15,.08,.2,.1,.31,.13l.33,.04s.01,0,.02,0c.28,0,.47-.08,.72-.2,.04-.02,.08-.04,.12-.06,.04-.02,.07-.04,.1-.06,.12-.08,.24-.17,.35-.27,.1-.1,.18-.21,.26-.33,.01-.02,.02-.03,.03-.05,.02-.05,.05-.11,.07-.16,.02-.05,.05-.12,.07-.17,0-.02,.01-.04,.01-.06,.02-.12,.05-.25,.05-.37,0-.14-.01-.29-.06-.43Z"/><path class="cls-2" d="M206.45,72.94c-.2-.28-.43-.53-.73-.7-.33-.19-.65-.26-1.02-.29-.66-.06-1.31,.2-1.81,.61-.06,.05-.11,.1-.16,.16-.36,.19-.67,.45-.92,.8-.44,.63-.45,1.48-.08,2.14,.27,.49,.77,.89,1.27,1.14,.5,.26,1.08,.45,1.65,.4,.63-.06,1.27-.29,1.69-.79,.45-.53,.63-1.19,.58-1.87-.05-.55-.13-1.14-.45-1.6Z"/><path class="cls-2" d="M209.18,73.21s0-.05-.02-.07c-.02-.06-.05-.13-.09-.19-.07-.1-.15-.2-.27-.26-.08-.05-.18-.07-.28-.08-.04-.05-.09-.1-.14-.13-.11-.06-.25-.09-.38-.05-.12,.04-.23,.11-.29,.22-.1,.17-.15,.37-.16,.56,0,.2,.05,.39,.13,.57,.03,.07,.08,.14,.13,.2,.05,.06,.1,.12,.16,.17,.05,.04,.1,.09,.16,.12,.1,.06,.21,.08,.32,.06,.07-.01,.14-.04,.21-.07,.03-.01,.05-.03,.07-.04,.05-.04,.11-.08,.16-.13,.07-.07,.13-.15,.17-.23,.04-.08,.09-.17,.1-.27,.03-.15,.03-.25,0-.4Z"/><path class="cls-2" d="M204.04,70.19c-.02-.08-.06-.17-.1-.24-.04-.07-.1-.12-.15-.18,0-.05-.02-.1-.05-.15-.06-.1-.17-.21-.29-.22-.07,0-.13-.02-.2-.02-.07,0-.14,.01-.2,.02-.09,.02-.18,.06-.27,.1-.09,.04-.16,.1-.23,.17-.07,.06-.13,.14-.18,.22-.01,.02-.03,.05-.04,.07-.03,.06-.06,.12-.07,.19-.02,.06-.02,.13-.03,.2,0,.03,0,.06,0,.09,.01,.15,.04,.24,.1,.37,.04,.08,.09,.15,.15,.22,.06,.07,.13,.12,.2,.17,.07,.05,.16,.08,.24,.11,.08,.03,.18,.04,.26,.05,.02,0,.05,0,.07,0,.06,0,.13-.01,.19-.03,.21-.05,.37-.19,.49-.36,.05-.07,.08-.15,.1-.22,.03-.08,.03-.17,.04-.25,0-.09,0-.18-.03-.27Z"/><path class="cls-2" d="M215.66,73.42c-.13-.16-.29-.29-.45-.41h0c.03-.23-.11-.49-.35-.54-.23-.05-.46,.06-.56,.26-.05,.01-.1,.03-.15,.06-.19,.1-.3,.3-.3,.51,0,.03,.01,.05,.02,.07-.01,.02-.02,.03-.04,.05-.14,.22-.19,.47-.14,.72,.06,.31,.32,.54,.61,.63,.27,.08,.58,.03,.82-.1,.27-.15,.46-.41,.63-.66l.05-.12c.02-.07,.02-.13,0-.2-.02-.11-.06-.19-.13-.28Z"/><path class="cls-2" d="M227.94,79.86c-.25-.47-.55-.9-.88-1.31-.16-.2-.34-.41-.57-.52-.28-.13-.6-.12-.86,.05-.39,.26-.61,.78-.51,1.24-.09,.36-.08,.73,.12,1.08,.35,.6,1.08,.72,1.7,.54,.34-.1,.65-.27,.93-.49,.08-.06,.12-.18,.13-.28,.01-.11,0-.21-.06-.31Z"/><path class="cls-2" d="M221.28,71.52c-.02-.06-.05-.13-.08-.18-.04-.06-.08-.11-.13-.16-.16-.16-.4-.27-.63-.26-.13,0-.27,.04-.38,.11-.13,.09-.23,.21-.29,.36-.03,.06-.06,.12-.09,.19-.03,.08-.04,.18-.04,.27,0,.04,0,.09,.01,.13,0,.05,.01,.09,.02,.14,.06,.21,.19,.39,.38,.5,.14,.09,.34,.13,.49,.09,.1-.03,.21-.07,.3-.14,.06-.04,.12-.09,.17-.14,.05-.05,.1-.11,.14-.17,.04-.06,.07-.13,.1-.2,.01-.03,.02-.07,.03-.1,.03-.14,.04-.3-.01-.44Z"/><path class="cls-2" d="M235.16,73.69c0-.09-.02-.17-.07-.25l-.08-.1c-.06-.06-.13-.1-.22-.13-.12-.03-.21-.03-.33,0-.01,0-.02,0-.03,.01-.04,.02-.11,.04-.15,.07-.02,.01-.04,.03-.06,.05-.02,.02-.04,.03-.06,.05-.01,0-.02,.02-.03,.03-.03,.03-.07,.08-.1,.13-.03,.05-.05,.1-.07,.15,0,.01,0,.03-.01,.04-.01,.05-.02,.11-.02,.17,0,.05,.01,.13,.02,.16,0,.01,0,.03,0,.04,.01,.04,.04,.11,.07,.15,.03,.04,.06,.08,.09,.11h0l.1,.08c.07,.04,.18,.07,.26,.07,.04,0,.09-.01,.13-.02h.04c.05-.03,.11-.05,.16-.08,.04-.03,.08-.06,.12-.09l.02-.02s.08-.09,.11-.14c.07-.1,.09-.23,.1-.35h0l.02-.13Z"/><path class="cls-2" d="M239.16,77.33c-.12-.42-.4-.94-.88-1-.16-.02-.32,0-.45,.09-.21,0-.42,.13-.47,.35-.05,.23-.1,.47-.1,.71,0,.24,.06,.51,.2,.71,.15,.21,.35,.37,.6,.45,.23,.08,.52,.05,.73-.09,.2-.13,.36-.33,.4-.57,.04-.22,.03-.44-.03-.65Z"/><path class="cls-9" d="M250.69,32.89c-1.34-.9-3.17-.81-4.66-.44-1.25,.3-2.42,.88-3.43,1.66,0-2.44-.32-5.02-1.25-7.26-.41-.99-1.03-1.96-2.01-2.47-1.08-.56-2.36-.47-3.45,0-2.28,1-3.58,3.6-4.52,5.76-1.04,2.4-1.67,4.95-2.02,7.53-.28,2.12-.38,4.25-.35,6.38,1.85,.04,3.86,.37,5.35,1.52,.7,.54,1.25,1.22,1.87,1.84,.49,.49,1.15,.76,1.75,1.11,2.55-.88,5.07-1.88,7.41-3.24,2.43-1.41,5.09-3.3,6.47-5.82,1.18-2.14,1-5.14-1.17-6.6Z"/><path class="cls-15" d="M250.49,33.24c-.41-.42-1.05,.22-.64,.64,2.6,2.65-.41,6.62-2.53,8.47-2.65,2.31-5.98,3.63-9.11,5.15-.53,.26-.07,1.04,.46,.79,3.48-1.69,7.18-3.16,9.98-5.92,2.26-2.23,4.58-6.34,1.85-9.12Z"/><path class="cls-15" d="M241.17,28.62c-.42-1.42-.89-3.24-2.33-3.96-.52-.26-.98,.52-.46,.79,1.25,.62,1.61,2.36,1.96,3.58,.47,1.61,.75,3.31,.46,4.98-.1,.57,.78,.82,.88,.24,.34-1.9,.04-3.79-.5-5.63Z"/><path class="cls-5" d="M238.18,29.31c-.08,.68-.38,1.35-.61,1.99-.24,.66-.48,1.31-.74,1.96-.45,1.13-.88,2.33-1.62,3.31-.59,.8-1.55,1.63-2.62,1.53-1.16-.11-1.59-1.33-1.69-2.32-.06-.56-.01-1.12,.1-1.66,.07-1.16,.39-2.28,.87-3.33,.5-1.08,1.2-2.08,2.01-2.95,.73-.77,1.81-1.76,2.95-1.22,.93,.45,1.47,1.7,1.35,2.68Z"/></g><g><g><polygon class="cls-11" points="30.61 58.06 24.82 60.47 21.97 54.89 20.02 51.08 17.7 46.56 15.79 42.83 13.62 38.59 11.6 34.65 9.59 30.71 7.49 26.62 5.34 22.42 3.32 18.47 0 11.98 6.13 9.53 7.53 12.3 9.66 16.53 11.06 19.3 13.49 24.12 15.47 28.05 17.77 32.6 19.8 36.62 22 40.98 24.13 45.21 26.3 49.51 30.61 58.06"/><path class="cls-4" d="M9.66,16.53c-.53,.75-1.06,1.45-1.5,2.09-.91,1.31-1.79,2.62-2.82,3.8l-2.02-3.94c.36-.51,.72-1.03,1.07-1.54,.67-.97,1.34-1.94,1.96-2.93,.13-.21,.75-1.06,1.18-1.7l2.13,4.23Z"/><path class="cls-4" d="M13.49,24.12c-1.09,2.3-2.39,4.5-3.9,6.59l-2.1-4.09c1.46-2.31,2.65-4.76,3.57-7.32l2.43,4.82Z"/><path class="cls-4" d="M17.77,32.6c-1.17,2.12-2.56,4.12-4.15,5.99l-2.01-3.94c1.55-2.05,2.85-4.26,3.87-6.6l2.3,4.55Z"/><path class="cls-4" d="M22,40.98c-1.2,2.02-2.59,3.91-4.29,5.58l-1.91-3.73c1.64-1.85,2.91-3.99,4-6.21l2.2,4.37Z"/><path class="cls-4" d="M26.3,49.51c-1.25,1.91-2.7,3.72-4.33,5.38l-1.95-3.81c1.61-1.81,2.99-3.77,4.12-5.86l2.17,4.29Z"/><path class="cls-16" d="M5.86,10.03c-1.38,1.42-3.32,2.28-5.36,2.35-.53,.02-.53,.8,0,.78,2.25-.07,4.42-1.01,5.94-2.58,.36-.37-.22-.93-.58-.55Z"/></g><path class="cls-6" d="M56.18,155.86H21.5c0-6.74,13.66-7.31,13.66-17.51s-6.88-7.02-12.49-29.88c-5.6-22.86-4.25-50.1-4.25-50.1H59.25s1.35,27.24-4.25,50.1c-5.61,22.86-12.49,19.67-12.49,29.88s13.66,10.77,13.66,17.51Z"/><path class="cls-1" d="M56.08,91.25c-4.36,.11-8.54-1.17-12.41-3.06-7.62-3.72-14.19-9.76-22.58-11.95-.2-6.95-.03-11.73-.03-11.73H57.07s.45,12.67-.99,26.74Z"/><path class="cls-12" d="M54.14,104.32c-2.48,12.19-6.98,22.79-15.08,24.16-6.58-1.11-10.79-8.32-13.46-17.52,2.92-2.13,6.32-3.51,9.93-4.22,6.03-1.18,12.67-.74,18.61-2.42Z"/><path class="cls-13" d="M60.78,49.49c-.37,1.98-1.08,3.93-2.18,5.65,.23,.04,.45,.11,.66,.2,1.2,.56,1.71,1.86,1.16,3.01-.26,.54-.72,.99-1.29,1.23-.72,.3-1.51,.16-2.27,.13-.95-.04-1.53,.31-1.77,1.19-.18,.65-.17,1.34-.41,1.98-.44,1.17-1.65,1.94-2.88,1.17-.58-.37-.98-.92-1.35-1.48-.36-.54-.96-1.41-1.77-1.26-.92,.18-1.03,1.3-.97,2.01,.08,.9,.29,1.8,.45,2.69,.51,3.04,.72,6.48-1.52,8.99-1.7,1.89-5.12,2.58-7.12,.68-2.67-2.54-.37-6.22,.39-8.99,.43-1.58,.46-3.48-1-4.6-1.45-1.11-3-.17-4.18,.8-1.12,.92-2.45,2.06-4.06,1.88-.72-.07-1.32-.44-1.8-.95-.48-.51-.86-1.14-1.48-1.5-1.57-.91-3.57-.11-5.21,.12-1.4,.19-3.05,.05-4.01-1.06-1.06-1.21-.56-2.83,.14-4.08,.29-.52,.71-1.16,.98-1.82-2.47-4.66-3.16-10.13-1.84-15.2,1.56-5.96,5.74-11.23,11.36-14.31,5.9-3.23,13.36-4.18,19.88-2.18,3.24,.99,6.1,2.78,8.17,5.36,2.18,2.74,3.36,6.06,3.9,9.42,.56,3.56,.69,7.34,.02,10.9Z"/><path class="cls-9" d="M62.82,40.83c.03,1.64-.38,3.35-1.66,4.53-1.08,.99-2.68,1.57-4.15,1.05-2.54-.9-3.74-5.16-7.01-3.79-1.76,.74-2.54,2.47-2.99,4.14-.46,1.7-.68,3.49-1.56,5.07-.75,1.34-2.06,2.44-3.69,2.65-1.66,.21-3.01-.71-3.75-2.07-.86-1.6-.78-3.53-1.79-5.06-.44-.67-1.15-1.29-2.01-1.37-.71-.07-1.36,.25-1.94,.6-1.14,.7-2.23,1.7-3.68,1.69-1.21-.02-2.17-.76-2.94-1.56-.81-.84-1.51-1.88-2.55-2.48-1.41-.82-2.86,0-4.29,.3-1.52,.31-2.94-.25-3.39-1.73-.45-1.5,.36-2.88,1.23-4.09,1.43-3.6,3.55-6.96,6.35-9.76,6.32-6.35,16.09-9.49,25.05-6.83,4.3,1.28,8.12,3.8,10.7,7.31,.4,.54,.76,1.11,1.1,1.69,.87,1.4,1.52,2.93,1.99,4.49,.51,1.68,.93,3.48,.96,5.23Z"/><path class="cls-11" d="M57.06,29.99c-.42,1.34-.92,2.69-1.53,3.96-.51,1.06-1.27,2.06-2.47,2.47-1.15,.4-2.17-.04-3.13-.64-.49-.31-1-.66-1.58-.77-.58-.11-1.14,.07-1.63,.36-1.93,1.15-2.84,4.01-5.45,4.06-2.55,.05-3.32-2.71-4.37-4.36-.71-1.12-1.76-1.68-3.15-1.64-1.43,.04-2.75,.61-4.14,.84-2.3,.38-4.63-.38-6.24-1.97-1.54-1.51-2.18-3.6-1.72-5.65,.33-1.48,1.21-2.86,2.44-3.82-.79-1.28-.98-2.85-.39-4.26,.58-1.37,1.85-2.42,3.33-2.83-.75-1.31-.84-2.92-.28-4.32,.6-1.49,1.85-2.5,3.42-3.03,1.75-.59,3.63-.56,5.44-.91,1.59-.31,3.39-.94,4.12-2.43,.7-1.41,.01-3.2-1.4-3.95-.32-.17-.23-.61,.1-.72,2.97-.9,6.39-.21,8.68,1.81,2.17,1.92,3.12,4.89,2.57,7.64,1.98,.27,3.75,1.67,4.2,3.54,.4,1.66-.26,3.43-1.57,4.55,2.04,.47,3.68,1.96,4.6,3.76,1.34,2.62,.99,5.6,.14,8.3Z"/><path class="cls-2" d="M49.21,9.67c-3.61,1.8-7.79,1.51-11.72,1.94-3.54,.38-6.91,1.52-9.87,3.38,.62-1.44,2.06-2.42,3.59-2.93,2.01-.67,4.16-.73,6.23-1.14,1.84-.36,3.7-1.05,4.94-2.44,1.17-1.32,1.56-3.03,.87-4.64-.8-1.87-2.66-3-4.65-3.52-.51-.13-.73,.62-.22,.76,1.78,.46,3.51,1.47,4.16,3.19,.63,1.66-.11,3.29-1.5,4.37-1.5,1.17-3.5,1.52-5.36,1.78-1.93,.27-3.91,.47-5.7,1.28-1.61,.74-2.99,2.06-3.37,3.75-.07,.32,.25,.52,.51,.48,.11,.1,.28,.14,.46,.03,3.19-2.12,6.85-3.3,10.72-3.64,3.84-.33,7.84-.22,11.34-1.97,.47-.24,.05-.91-.42-.68Z"/><path class="cls-2" d="M52,17.42c-3.1,2.48-7.4,2.5-11.22,2.17-4.01-.34-8.22-1.06-12.12,.27-1.36,.46-2.61,1.15-3.64,2.08,.34-1.28,1.23-2.39,2.35-3.19,1.68-1.2,3.8-1.68,5.83-2.03,2.29-.39,4.59-.71,6.88-1.06,2.12-.32,4.32-.54,6.29-1.38,1.85-.78,3.5-2.29,3.78-4.26,.07-.49-.73-.71-.8-.21-.28,1.91-1.91,3.25-3.72,3.92-2.08,.77-4.39,.96-6.58,1.29-2.29,.35-4.61,.64-6.88,1.08-1.98,.38-3.96,.98-5.55,2.2-1.49,1.14-2.56,2.83-2.57,4.66-.08,.14-.05,.27,.04,.36,.15,.34,.76,.31,.78-.1,2.38-2.87,6.5-3.48,10.12-3.36,4.09,.15,8.18,1.08,12.26,.37,1.95-.34,3.81-1.07,5.33-2.29,.41-.33-.18-.88-.58-.55Z"/><path class="cls-2" d="M53.45,18.21c-.11-.49-.9-.28-.8,.21,.46,2.12-.69,4.28-2.42,5.6-1.91,1.46-4.45,1.96-6.84,2.04-5.23,.18-10.9-1.57-15.82,.87-2.09,1.04-3.82,2.86-4.26,5.09-.1,.49,.7,.7,.8,.21,.42-2.13,2.08-3.79,4.09-4.72,2.44-1.14,5.3-1.19,7.96-1.04,4.92,.28,10.75,1.32,14.84-2.04,1.86-1.52,2.95-3.9,2.45-6.22Z"/><path class="cls-2" d="M45.96,32.1c-1.49-.69-3.02-.63-4.53-.04-.71,.28-1.43,.59-2.22,.46-.74-.13-1.39-.53-2.04-.85-.64-.32-1.29-.59-2.01-.67-.81-.09-1.62,.02-2.4,.2-1.68,.38-3.42,1.13-5.15,.51-.5-.18-.71,.58-.22,.76,1.54,.55,3.15,.12,4.66-.28,.84-.23,1.71-.45,2.59-.44,.83,.01,1.54,.3,2.26,.67,1.28,.65,2.47,1.19,3.94,.71,.72-.23,1.39-.59,2.15-.71,.87-.14,1.77,0,2.56,.37,.48,.22,.9-.45,.42-.68Z"/><path class="cls-2" d="M54.81,30.62c-.1-.17-.39-.27-.57-.14-1.4,1-3.44,2.17-5.11,.99-.18-.13-.46-.03-.57,.14-.13,.2-.03,.41,.15,.54,.85,.6,1.99,.7,3,.49,1.1-.23,2.06-.85,2.95-1.48,.18-.13,.27-.34,.15-.54Z"/><path class="cls-11" d="M56.08,91.25c-.44,4.33-1.07,8.8-1.94,13.08-5.94,1.68-12.58,1.24-18.61,2.42-3.61,.71-7.01,2.09-9.93,4.22-3.22-11.06-4.23-25.01-4.51-34.73,8.38,2.18,14.95,8.23,22.58,11.95,3.87,1.88,8.05,3.17,12.41,3.06Z"/><path class="cls-16" d="M29.41,43.63c0,.64-.73,.99-1.34,.9-.78-.12-1.36-.73-1.81-1.3-.78-1-1.49-2.23-2.87-2.54-.62-.14-1.19-.02-1.76,.22-.52,.22-1.33,.75-1.86,.29-.85-.74-.19-2.53,.11-3.37,.53-1.52,1.44-2.9,2.61-4.05,.37-.36-.21-.92-.58-.55-1.2,1.17-2.12,2.56-2.71,4.09-.46,1.19-1.05,2.96-.25,4.14,.35,.52,.97,.77,1.61,.68,.79-.11,1.45-.72,2.26-.73,.97-.01,1.68,.8,2.19,1.48,.49,.65,.94,1.34,1.61,1.84,.66,.49,1.52,.78,2.34,.51,.73-.24,1.28-.84,1.28-1.59,0-.5-.82-.5-.83,0Z"/><path class="cls-16" d="M40.97,51.44c-.63-.06-1.09-.58-1.32-1.1-.33-.71-.29-1.53-.3-2.29-.03-1.25-.26-2.64-1.47-3.37-.45-.27-.87,.41-.42,.68,1.35,.82,.98,2.71,1.11,3.98,.13,1.32,.85,2.73,2.4,2.89,.53,.05,.52-.73,0-.78Z"/><path class="cls-16" d="M42.53,49.6c-.09-.04-.17-.09-.25-.14-.02-.01-.04-.02-.05-.04h0s-.07-.06-.11-.09c-.07-.06-.13-.12-.19-.19h0s-.02-.04-.03-.05c-.03-.04-.05-.08-.08-.12-.04-.06-.11-.15-.12-.22h0s-.02-.05-.03-.07c-.02-.04-.03-.09-.04-.13-.01-.04-.02-.09-.03-.13v-.05h-.01c0-.1-.01-.19-.01-.28,0-.2-.19-.4-.41-.39-.23,0-.41,.17-.41,.39-.03,.9,.53,1.8,1.38,2.2,.19,.09,.46,.05,.57-.14,.1-.18,.06-.44-.15-.54Z"/><path class="cls-16" d="M59.34,44c-1.74-.59-3.15-1.95-3.74-3.6-.17-.47-.97-.27-.8,.21,.69,1.93,2.3,3.47,4.32,4.15,.21,.07,.45-.08,.51-.27,.06-.22-.08-.41-.29-.48Z"/><path class="cls-10" d="M20.8,60.52c-.71-.18-1.03-.86-1.01-1.51,.03-.76,.44-1.45,.8-2.11,.66-1.2,1.05-2.41,.84-3.78-.21-1.38-1.07-2.47-1.76-3.66-.62-1.05-1.16-2.56-.23-3.6,.34-.38-.24-.94-.58-.55-2.39,2.67,1.45,5.45,1.78,8.05,.11,.87-.05,1.74-.44,2.54-.34,.7-.78,1.36-1.04,2.09-.43,1.26-.12,2.9,1.41,3.29,.51,.13,.73-.62,.22-.76Z"/><path class="cls-10" d="M31.98,62.21c-.69,.28-1.52,.24-2.18-.1-.7-.36-1.11-1.02-1.52-1.64-.77-1.19-1.82-2.51-3.48-2.27-.52,.08-.3,.83,.22,.76,.78-.12,1.48,.46,1.92,1,.49,.59,.83,1.29,1.32,1.89,1,1.21,2.63,1.65,4.14,1.04,.49-.2,.07-.87-.42-.68Z"/><path class="cls-10" d="M45.96,57.44c-1.27,.07-2.54,.15-3.81,.2-.61,.03-1.24,.03-1.83-.16-.52-.17-.93-.52-1.37-.82-.92-.61-1.91-.68-2.98-.4-1.1,.28-2.39,.99-3.53,.48-.48-.22-.9,.46-.42,.68,1.05,.47,2.13,.24,3.18-.1,.6-.2,1.23-.43,1.87-.45,.68-.02,1.18,.28,1.71,.65,.96,.67,1.89,.94,3.08,.91,1.36-.03,2.72-.14,4.08-.21,.53-.03,.53-.81,0-.78Z"/><path class="cls-10" d="M57.27,56.79c-.68,.39-1.44-.18-2.02-.5-.64-.36-1.3-.59-2.06-.44-.76,.16-1.38,.63-2.05,.97-.51,.26-1.4,.54-1.84,0-.32-.39-1.04,0-.71,.4,.46,.56,1.15,.77,1.88,.67,.88-.13,1.56-.71,2.34-1.06,.44-.2,.91-.31,1.39-.16,.43,.14,.8,.41,1.18,.62,.7,.39,1.57,.61,2.31,.19,.45-.26,.04-.94-.42-.68Z"/><g><polygon class="cls-2" points="40.4 93.86 40.41 93.85 40.4 93.86 40.4 93.86"/><polygon class="cls-2" points="39.72 93.22 39.72 93.21 39.72 93.22 39.72 93.22 39.72 93.22"/></g><path class="cls-2" d="M31.96,99.18c.16,.33,.22,.69,.13,1.05-.09,.34-.32,.65-.64,.83-.29,.17-.65,.25-.98,.21-.41-.05-.75-.22-1-.54-.21-.27-.29-.62-.25-.96-.05-.52,.22-1.06,.75-1.28,.72-.3,1.65-.02,1.99,.67Z"/><path class="cls-2" d="M37.1,93.44c.25,.54,.3,1.14,.06,1.68-.24,.52-.72,.87-1.28,1.01-.57,.16-1.21,.14-1.79,.06-.6-.09-1.19-.36-1.52-.86-.3-.46-.25-.98-.06-1.46,.05-.32,.18-.65,.32-.94,.29-.58,.79-1.05,1.48-1.14,1.15-.14,2.34,.67,2.8,1.64Z"/><path class="cls-2" d="M32.77,89.67c-.36-.44-.29-1.03-.08-1.52,.18-.4,.45-.82,.92-.97,.51-.16,1.01,.19,1.41,.46,.41,.28,.82,.62,.81,1.14,0,.44-.27,.89-.62,1.17-.34,.28-.79,.45-1.24,.4-.38-.04-.74-.2-.98-.49-.08-.06-.15-.13-.22-.2Z"/><path class="cls-2" d="M26.29,90.48c-.31-.05-.66-.1-.93-.28-.29-.18-.44-.48-.5-.8-.12-.67,.07-1.33,.38-1.94,.13-.25,.28-.63,.54-.78,0,0,.02-.01,.03-.02,.21-.27,.45-.51,.74-.71,.25-.18,.55-.33,.87-.33,.34,0,.63,.17,.89,.36,.48,.36,.83,.85,1.04,1.39,.4,1.07-.02,2.35-1.08,2.92-.62,.33-1.32,.3-1.99,.18Z"/><path class="cls-2" d="M28.67,97.68c-.57,.1-1.21,.04-1.63-.38-.37-.36-.53-.92-.36-1.4,.03-.08,.07-.16,.12-.23-.01-.29,.04-.57,.17-.84,.21-.42,.64-.79,1.13-.89,.56-.11,1.1,.09,1.51,.45,.69,.6,.99,1.73,.45,2.51-.31,.45-.84,.69-1.39,.79Z"/><path class="cls-2" d="M26.82,103.14c-.1,.29-.31,.57-.6,.71-.29,.14-.64,.16-.94,.05-.26-.1-.48-.28-.61-.51-.31-.37-.44-.89-.27-1.35,.12-.32,.36-.61,.72-.72,.33-.1,.72,0,1,.18,.54,.36,.92,1.01,.7,1.63Z"/><path class="cls-2" d="M40.87,94.5c-.34,.22-.78,.2-1.14,.04-.02,0-.04-.02-.06-.04-.06-.02-.12-.04-.17-.06-.84-.38-.88-1.79,.09-2.04,.4-.1,.84,0,1.19,.19,.37,.2,.62,.55,.61,.96,0,.38-.19,.73-.52,.94Z"/><path class="cls-2" d="M44.76,100.4c.34,.9-.06,2.09-1.03,2.46-.48,.18-1.03,.11-1.51-.04-.47-.15-.93-.4-1.18-.81-.26-.44-.24-1.02,.07-1.43,.01-.01,.02-.02,.03-.03,.03-.16,.08-.32,.16-.47,.22-.43,.66-.78,1.17-.88,.98-.2,1.96,.33,2.3,1.21Z"/><path class="cls-2" d="M47.83,94.65c-.2-.03-.39-.14-.55-.28-.59-.32-.72-1.18-.2-1.61,.22-.19,.51-.29,.81-.3,.31,0,.61,.11,.84,.31,.24,.2,.38,.51,.4,.81,.01,.29-.13,.6-.36,.8-.26,.23-.59,.33-.94,.27Z"/><path class="cls-2" d="M50.35,97.28c-.18,.28-.47,.5-.81,.58-.69,.17-1.42-.2-1.68-.82-.24-.59,.07-1.33,.65-1.62,.09-.04,.19-.05,.28-.04,.06-.02,.12-.05,.18-.05,.34-.06,.7,0,.99,.2,.28,.19,.52,.47,.58,.8,.06,.33,0,.67-.19,.96Z"/><path class="cls-18" d="M57.46,155.33c-.14-.49-.74-.86-1.27-.68-2.1,.69-4.3,.91-6.51,.97-2.33,.06-4.67,.02-7.01,.02-4.74,0-9.48,.08-14.22-.03-2.53-.06-5.04-.29-7.45-1.06-1.26-.4-1.81,1.49-.55,1.89,4.47,1.43,9.33,1.15,13.98,1.16,4.86,0,9.72,.08,14.58,0,2.61-.04,5.25-.25,7.73-1.06,.53-.17,.88-.67,.72-1.2Z"/><path class="cls-18" d="M44.49,145.16c-.16-.53-.72-.8-1.27-.68-2.7,.55-5.5,.51-8.19-.1-1.29-.29-1.84,1.59-.55,1.89,3.05,.7,6.22,.73,9.29,.1,.55-.11,.86-.71,.72-1.2Z"/><path class="cls-3" d="M25.13,67.84c.04-.53-.5-.98-1.03-.98-.59,0-.99,.45-1.03,.98-.29,3.66,.6,7.29,.39,10.94-.07,1.26,1.99,1.25,2.07,0,.22-3.66-.68-7.29-.39-10.94Z"/><path class="cls-3" d="M25.48,83.12c-.06-1.25-2.13-1.26-2.07,0,.17,3.35,.43,6.69,.77,10.02,.05,.53,.44,.98,1.03,.98,.52,0,1.09-.45,1.03-.98-.35-3.33-.61-6.68-.77-10.02Z"/><path class="cls-3" d="M50.2,103.46c.11,6.46-2.77,12.5-6.05,18.02-.65,1.1,1.13,2.09,1.79,.99,3.45-5.82,6.45-12.2,6.33-19-.02-1.26-2.09-1.26-2.07,0Z"/><path class="cls-17" d="M35.08,15.33c-.11-.17-.28-.31-.49-.36-.22-.05-.44-.03-.64,.08-.31,.17-.61,.37-.88,.6-.27,.23-.5,.49-.72,.77-.06,.09-.09,.19-.1,.29-.02,.1-.02,.21,.01,.31,.05,.18,.2,.38,.38,.47,.19,.1,.42,.14,.64,.08l.2-.08c.09-.05,.16-.12,.23-.2,.19-.23,.41-.43,.65-.62,.14-.1,.28-.19,.43-.27,.18-.1,.33-.28,.38-.47,.05-.19,.03-.44-.08-.6Z"/><path class="cls-17" d="M33.16,24.61c-.06-.13-.12-.26-.18-.39-.22-.5-.39-1-.53-1.52-.1-.4-.6-.67-1.02-.55-.44,.13-.69,.54-.58,.96,.21,.79,.51,1.55,.88,2.28,.09,.17,.31,.31,.49,.36,.2,.05,.46,.03,.64-.08,.18-.11,.33-.27,.38-.47,.05-.21,.02-.4-.08-.6Z"/><path class="cls-17" d="M39.76,24.02c-.07-.12-.13-.24-.18-.37-.11-.27-.21-.54-.28-.82-.05-.19-.21-.37-.38-.47-.18-.1-.44-.14-.64-.08-.2,.06-.39,.18-.49,.36-.11,.19-.14,.39-.08,.6,.13,.54,.35,1.07,.63,1.56,.09,.17,.3,.31,.49,.36,.2,.05,.46,.03,.64-.08,.18-.11,.33-.27,.38-.47,.05-.21,.02-.41-.08-.6Z"/><path class="cls-17" d="M44.73,18.08c-.11-.17-.28-.31-.49-.36-.21-.04-.46-.04-.64,.08-.33,.22-.68,.41-1.04,.56-.1,.04-.19,.07-.29,.1-.2,.07-.38,.18-.49,.36-.1,.17-.15,.42-.08,.6,.06,.19,.19,.37,.38,.47,.19,.1,.43,.15,.64,.08,.61-.19,1.2-.46,1.72-.82,.18-.12,.32-.26,.38-.47,.05-.19,.03-.44-.08-.6Z"/><path class="cls-17" d="M43.84,13.23l-.08-.19c-.07-.12-.17-.21-.3-.28-.6-.42-1.19-.85-1.79-1.27-.16-.11-.45-.13-.64-.08-.19,.05-.4,.19-.49,.36-.1,.18-.15,.4-.08,.6l.08,.19c.07,.12,.17,.21,.3,.28,.6,.42,1.19,.85,1.79,1.27,.16,.11,.45,.13,.64,.08,.19-.05,.4-.19,.49-.36,.1-.18,.15-.4,.08-.6Z"/><path class="cls-17" d="M38.99,18.04v-.03c-.09-.63-.09-1.26,0-1.89v.03c.02-.2,.02-.37-.09-.56-.1-.16-.3-.32-.49-.36-.21-.05-.45-.04-.64,.08-.17,.1-.35,.27-.38,.47-.07,.44-.12,.89-.12,1.33,0,.45,.05,.89,.13,1.33,.03,.18,.22,.38,.38,.47,.18,.1,.44,.14,.64,.08,.2-.06,.39-.18,.49-.36,.11-.2,.12-.38,.08-.6Z"/><path class="cls-17" d="M27.87,22.72c-.1-.16-.3-.32-.49-.36-.21-.05-.45-.04-.64,.08-.17,.11-.34,.27-.38,.47-.14,.69-.35,1.37-.63,2.03-.07,.18-.01,.45,.08,.6,.1,.16,.3,.32,.49,.36,.21,.05,.45,.04,.64-.08l.17-.12c.1-.1,.17-.21,.21-.35,.28-.65,.49-1.33,.63-2.03,.04-.21,.03-.41-.08-.6Z"/><path class="cls-17" d="M34.28,30.69c-.17-.38-.28-.78-.35-1.19-.02-.22-.04-.43-.03-.65,0-.41-.39-.8-.83-.78-.45,.02-.82,.34-.83,.78-.01,.77,.13,1.55,.44,2.25,.09,.2,.18,.36,.38,.47,.18,.1,.44,.14,.64,.08,.2-.06,.39-.18,.49-.36,.1-.17,.17-.41,.08-.6Z"/><path class="cls-17" d="M42.28,28.67c-.06-.19-.19-.37-.38-.47-.21-.1-.41-.12-.64-.08-.66,.12-1.32,.23-1.98,.35-.19,.03-.4,.2-.49,.36-.1,.17-.15,.42-.08,.6,.06,.19,.19,.37,.38,.47,.21,.1,.41,.12,.64,.08,.66-.12,1.32-.23,1.98-.35,.19-.03,.4-.2,.49-.36,.1-.17,.15-.42,.08-.6Z"/><path class="cls-17" d="M47.15,26.73c-.37-.54-.73-1.08-1.1-1.63-.12-.17-.29-.31-.49-.36-.2-.05-.46-.03-.64,.08-.18,.11-.33,.27-.38,.47-.05,.2-.04,.42,.08,.6,.37,.54,.73,1.08,1.1,1.63,.12,.17,.29,.31,.49,.36,.2,.05,.46,.03,.64-.08,.18-.11,.33-.27,.38-.47,.05-.2,.04-.42-.08-.6Z"/><path class="cls-17" d="M51.18,21.53c-.13-.39-.58-.69-1.02-.55-.16,.05-.33,.09-.5,.12-.24,.02-.48,.02-.72,0-.2-.03-.39-.08-.58-.14-.19-.07-.47-.02-.64,.08-.17,.1-.34,.28-.38,.47-.05,.2-.04,.43,.08,.6,.12,.18,.28,.29,.49,.36,.85,.29,1.83,.3,2.68,.03,.2-.06,.38-.18,.49-.36,.1-.17,.15-.42,.08-.6Z"/><path class="cls-17" d="M51.78,15.54c-.32-.52-.7-1.01-1.11-1.48-.13-.15-.39-.23-.58-.23s-.45,.09-.58,.23c-.14,.15-.25,.35-.24,.55l.03,.21c.04,.13,.11,.25,.21,.35,.07,.07,.13,.15,.19,.22,.24,.3,.46,.61,.66,.94,.1,.17,.29,.31,.49,.36,.2,.05,.46,.03,.64-.08,.18-.11,.33-.27,.38-.47,.05-.21,.03-.42-.08-.6Z"/><path class="cls-17" d="M48.09,8.35l-.08-.19c-.07-.12-.17-.21-.3-.28l-1.52-1.1c-.1-.06-.2-.09-.31-.09-.11-.02-.22-.02-.33,.01-.19,.05-.4,.19-.49,.36-.1,.18-.15,.4-.08,.6l.08,.19c.07,.12,.17,.21,.3,.28,.51,.37,1.01,.73,1.52,1.1,.09,.06,.2,.09,.31,.09,.11,.02,.22,.02,.33-.01,.19-.05,.4-.19,.49-.36,.1-.18,.15-.4,.08-.6Z"/><path class="cls-17" d="M35.7,8.76c-.05-.18-.2-.38-.38-.47-.19-.1-.42-.14-.64-.08l-.2,.08c-.12,.07-.22,.16-.3,.28-.4,.54-.81,1.07-1.21,1.61-.12,.16-.14,.43-.08,.6,.05,.18,.2,.38,.38,.47,.19,.1,.42,.14,.64,.08l.2-.08c.12-.07,.22-.16,.3-.28,.4-.54,.81-1.07,1.21-1.61,.12-.16,.14-.43,.08-.6Z"/><path class="cls-17" d="M53.74,25.18l-.08-.19c-.07-.12-.17-.21-.3-.28-.27-.2-.56-.36-.87-.49-.37-.16-.74-.29-1.14-.36-.22-.04-.44-.03-.64,.08-.17,.1-.34,.28-.38,.47-.05,.2-.04,.43,.08,.6,.11,.16,.28,.32,.49,.36,.26,.05,.51,.12,.75,.21,.3,.13,.59,.29,.86,.48,.16,.11,.46,.13,.64,.08,.19-.05,.4-.19,.49-.36,.1-.18,.15-.4,.08-.6Z"/><path class="cls-17" d="M51.46,27.97c-.05-.18-.2-.38-.38-.47-.19-.1-.42-.14-.64-.08-.21,.07-.37,.18-.49,.36-.32,.45-.62,.92-.89,1.4-.1,.18-.14,.4-.08,.6,.05,.18,.2,.38,.38,.47,.19,.1,.42,.14,.64,.08,.2-.06,.39-.18,.49-.36,.27-.48,.57-.95,.89-1.4,.12-.16,.14-.42,.08-.6Z"/></g></svg>